<svg width="188" height="38" viewBox="0 0 188 38" fill="none" xmlns="http://www.w3.org/2000/svg">
<path d="M5.60728 8.51983L7.77816 9.60527C8.17776 9.7798 8.61259 9.85845 9.04796 9.83489C9.48333 9.81134 9.90714 9.68624 10.2855 9.46959L12.3371 8.1345C12.69 7.87828 12.9774 7.54206 13.1755 7.15342C13.3735 6.76478 13.4768 6.33473 13.4767 5.89849L13.3465 3.45083C13.299 3.01812 13.1505 2.60256 12.9129 2.23774C12.6753 1.87292 12.3554 1.569 11.9788 1.3505L9.80793 0.237927C9.40914 0.061326 8.97431 -0.0188877 8.53873 0.00374373C8.10314 0.0263751 7.67895 0.1512 7.30056 0.36818L5.24914 1.70327C4.89675 1.96014 4.60987 2.29646 4.41189 2.68499C4.21385 3.07347 4.11019 3.50325 4.10938 3.93927L4.23963 6.38694C4.2818 6.82557 4.42784 7.2478 4.66566 7.6187C4.90348 7.98965 5.22629 8.29856 5.60728 8.51983Z" fill="white"/>
<path d="M18.7021 11.6889L16.5312 10.5764C16.1326 10.4019 15.6987 10.3233 15.2642 10.3469C14.8297 10.3704 14.4068 10.4955 14.0293 10.7121L11.9561 12.0471C11.605 12.3052 11.3191 12.6418 11.1212 13.0301C10.9233 13.4183 10.8189 13.8474 10.8164 14.2831L10.9467 16.7308C10.9942 17.1636 11.1427 17.5791 11.3802 17.944C11.6178 18.3088 11.9378 18.6127 12.3143 18.8311L14.4852 19.9166C14.8831 20.0931 15.317 20.1734 15.7518 20.1508C16.1865 20.1281 16.6097 20.0033 16.9871 19.7863L19.044 18.4512C19.3953 18.192 19.6812 17.8545 19.879 17.4653C20.0769 17.0763 20.1812 16.6463 20.1837 16.2098L20.0535 13.7676C20.0037 13.3404 19.8558 12.9305 19.6214 12.5699C19.387 12.2093 19.0724 11.9078 18.7021 11.6889Z" fill="white"/>
<path d="M25.4007 22.012L23.2298 20.9265C22.831 20.7499 22.3962 20.6696 21.9606 20.6923C21.525 20.7149 21.1008 20.8397 20.7224 21.0568L18.671 22.3919C18.3192 22.6493 18.0328 22.9858 17.8349 23.3741C17.6369 23.7625 17.5329 24.192 17.5312 24.6279L17.6616 27.0755C17.7135 27.5013 17.863 27.9094 18.0983 28.2679C18.3336 28.6266 18.6484 28.9261 19.0184 29.1433L21.1892 30.2287C21.5888 30.4032 22.0236 30.4819 22.459 30.4583C22.8944 30.4347 23.3182 30.3097 23.6966 30.0931L25.7535 28.758C26.1049 28.5005 26.3907 28.1639 26.5877 27.7754C26.7848 27.3869 26.8876 26.9575 26.8878 26.522L26.7738 24.1177C26.7269 23.6834 26.5782 23.2662 26.3395 22.9003C26.101 22.5344 25.7792 22.23 25.4007 22.012Z" fill="white"/>
<path d="M9.40533 15.9331L9.30221 14.0282C9.30471 13.5924 9.40907 13.1633 9.607 12.7751C9.80488 12.3868 10.0908 12.0502 10.4419 11.7922L14.4418 9.19254C14.8192 8.976 15.2421 8.8509 15.6766 8.82734C16.1111 8.80379 16.5451 8.88243 16.9437 9.05686L18.6478 9.92521C19.0467 10.1018 19.4815 10.1821 19.917 10.1594C20.3527 10.1368 20.7768 10.0119 21.1552 9.79496L23.2067 8.45444C23.5588 8.1973 23.8454 7.86092 24.0433 7.47244C24.2413 7.08402 24.3451 6.65446 24.3464 6.21844L24.2161 3.7762C24.1695 3.34251 24.0213 2.92587 23.7837 2.56007C23.5461 2.19423 23.2257 1.88949 22.8485 1.67045L20.6776 0.557871C20.2781 0.383386 19.8432 0.304746 19.4078 0.3283C18.9724 0.351854 18.5486 0.476951 18.1702 0.693551L16.0753 2.00693C15.7239 2.2644 15.4381 2.60099 15.2411 2.98947C15.044 3.37795 14.9412 3.80735 14.9411 4.24294L15.0388 6.14788C15.0386 6.58352 14.9357 7.01292 14.7387 7.4014C14.5416 7.78988 14.2558 8.12647 13.9045 8.38389L9.90463 10.9835C9.52625 11.2005 9.10211 11.3254 8.66653 11.348C8.23088 11.3706 7.79611 11.2904 7.39727 11.1138L5.69855 10.2508C5.29971 10.0742 4.86494 9.99403 4.4293 10.0167C3.99371 10.0393 3.56957 10.1641 3.19119 10.3811L1.13971 11.7162C0.787322 11.9731 0.500496 12.3094 0.302458 12.6979C0.10442 13.0864 0.000814079 13.5162 0 13.9522L0.130252 16.3999C0.176491 16.8337 0.324491 17.2505 0.562093 17.6164C0.79975 17.9823 1.12034 18.2869 1.49791 18.5056L3.66878 19.591C4.06833 19.7656 4.50316 19.8442 4.93853 19.8207C5.3739 19.7971 5.79776 19.672 6.17615 19.4554L8.22763 18.1203C8.58018 17.8721 8.87004 17.5453 9.07449 17.1656C9.27888 16.7861 9.39214 16.3641 9.40533 15.9331Z" fill="white"/>
<path d="M30.8897 14.0991C30.8414 13.6659 30.6926 13.2499 30.4551 12.8844C30.2177 12.5188 29.8982 12.2137 29.5221 11.9934L27.3512 10.9079C26.9516 10.7338 26.5167 10.6554 26.0815 10.679C25.6462 10.7025 25.2223 10.8274 24.8439 11.0436L22.7923 12.3787C22.4406 12.6362 22.1542 12.9726 21.9563 13.361C21.7583 13.7493 21.6543 14.1788 21.6527 14.6147L21.7558 16.5251C21.7541 16.9609 21.6501 17.3904 21.4521 17.7788C21.2542 18.1671 20.9678 18.5036 20.616 18.7611L16.6216 21.3553C16.2432 21.5719 15.8194 21.697 15.384 21.7205C14.9487 21.7441 14.5138 21.6654 14.1142 21.491L12.4101 20.6226C12.0115 20.4481 11.5775 20.3695 11.143 20.393C10.7085 20.4166 10.2856 20.5417 9.90816 20.7583L7.83497 22.088C7.48388 22.346 7.19798 22.6826 7.00005 23.0708C6.80217 23.459 6.69781 23.8882 6.69531 24.324L6.82551 26.7716C6.87305 27.2043 7.02154 27.6199 7.25909 27.9847C7.49669 28.3495 7.81662 28.6534 8.19322 28.8719L10.3641 29.9845C10.762 30.1611 11.1959 30.2413 11.6306 30.2187C12.0654 30.196 12.4886 30.0711 12.866 29.8542L14.9229 28.5191C15.2737 28.2608 15.5594 27.9241 15.7573 27.536C15.9551 27.1478 16.0597 26.7188 16.0627 26.2832L15.9595 24.3727C15.9607 23.9368 16.0646 23.5072 16.2625 23.1188C16.4605 22.7303 16.7471 22.3939 17.0992 22.1367L21.0936 19.5372C21.472 19.3202 21.8962 19.1953 22.3318 19.1727C22.7674 19.15 23.2021 19.2303 23.601 19.4069L25.2997 20.2698C25.6985 20.4464 26.1334 20.5267 26.5689 20.504C27.0045 20.4814 27.4287 20.3566 27.807 20.1396L29.864 18.8045C30.215 18.5467 30.5006 18.2101 30.6976 17.8217C30.8947 17.4333 30.9976 17.004 30.9982 16.5685L30.8897 14.0991Z" fill="white"/>
<path d="M38.1797 4.31506H46.3157L50.1317 19.7591L53.9477 4.31506H62.4437L54.7037 29.0831H45.5237L38.1797 4.31506Z" fill="white"/>
<path d="M70.4312 29.3711C68.4152 29.3711 66.8432 28.7231 65.7152 27.4271C64.5872 26.1311 64.0232 24.3671 64.0232 22.1351V11.0471H71.6552V21.8111C71.6552 22.3631 71.7992 22.7951 72.0872 23.1071C72.3992 23.3951 72.7952 23.5391 73.2752 23.5391C73.7552 23.5391 74.2472 23.3951 74.7512 23.1071L75.1472 28.1111C74.6192 28.5191 73.9232 28.8311 73.0592 29.0471C72.2192 29.2631 71.3432 29.3711 70.4312 29.3711ZM67.8392 8.34706C66.7112 8.34706 65.7512 7.99906 64.9592 7.30306C64.1912 6.58306 63.8072 5.70706 63.8072 4.67506C63.8072 3.64306 64.2152 2.77906 65.0312 2.08306C65.8472 1.38706 66.7832 1.03906 67.8392 1.03906C68.9432 1.03906 69.8912 1.39906 70.6832 2.11906C71.4992 2.83906 71.9072 3.69106 71.9072 4.67506C71.9072 5.73106 71.4992 6.60706 70.6832 7.30306C69.8672 7.99906 68.9192 8.34706 67.8392 8.34706Z" fill="white"/>
<path d="M77.2436 11.2991H84.8396V14.9711C85.3916 13.5551 86.1356 12.5111 87.0716 11.8391C88.0316 11.1431 89.1476 10.7951 90.4196 10.7951L91.4636 16.6631C89.1836 16.6631 87.5036 16.9151 86.4236 17.4191C85.3676 17.8991 84.8396 18.6671 84.8396 19.7231V29.0831H77.2436V11.2991Z" fill="white"/>
<path d="M102.778 29.3711C100.762 29.3711 98.962 28.9751 97.378 28.1831C95.818 27.3911 94.594 26.2991 93.706 24.9071C92.842 23.4911 92.41 21.8711 92.41 20.0471C92.41 18.2231 92.854 16.6151 93.742 15.2231C94.63 13.8071 95.854 12.7151 97.414 11.9471C98.998 11.1791 100.798 10.7951 102.814 10.7951C104.854 10.7951 106.654 11.1911 108.214 11.9831C109.798 12.7511 111.022 13.8311 111.886 15.2231C112.75 16.6151 113.182 18.2231 113.182 20.0471C113.182 21.8951 112.738 23.5271 111.85 24.9431C110.986 26.3351 109.762 27.4271 108.178 28.2191C106.618 28.9871 104.818 29.3711 102.778 29.3711ZM102.85 23.9711C103.834 23.9711 104.638 23.6111 105.262 22.8911C105.91 22.1471 106.234 21.1991 106.234 20.0471C106.234 18.8951 105.91 17.9591 105.262 17.2391C104.638 16.4951 103.834 16.1231 102.85 16.1231C101.866 16.1231 101.05 16.4951 100.402 17.2391C99.778 17.9591 99.466 18.8951 99.466 20.0471C99.466 21.1991 99.778 22.1471 100.402 22.8911C101.05 23.6111 101.866 23.9711 102.85 23.9711Z" fill="white"/>
<path d="M126.068 37.3271C124.748 37.3271 123.488 37.1951 122.288 36.9311L122.864 31.6031C123.8 31.7471 124.664 31.8191 125.456 31.8191C126.944 31.8191 128.072 31.3751 128.84 30.4871C129.608 29.6231 130.064 28.1591 130.208 26.0951C128.792 28.0871 126.632 29.0831 123.728 29.0831C122.144 29.0831 120.68 28.6751 119.336 27.8591C118.016 27.0431 116.96 25.9391 116.168 24.5471C115.4 23.1551 115.016 21.6311 115.016 19.9751C115.016 18.2951 115.4 16.7591 116.168 15.3671C116.936 13.9511 117.98 12.8351 119.3 12.0191C120.644 11.2031 122.108 10.7951 123.692 10.7951C125.156 10.7951 126.428 11.1791 127.508 11.9471C128.612 12.6911 129.332 13.6991 129.668 14.9711V10.7951H137.264V24.5111C137.264 28.7111 136.304 31.8911 134.384 34.0511C132.488 36.2351 129.716 37.3271 126.068 37.3271ZM126.068 23.6831C127.028 23.6831 127.856 23.3471 128.552 22.6751C129.248 21.9791 129.62 21.1631 129.668 20.2271V19.9391C129.62 19.0271 129.236 18.2231 128.516 17.5271C127.82 16.8311 127.004 16.4831 126.068 16.4831C125.084 16.4831 124.244 16.8431 123.548 17.5631C122.852 18.2591 122.504 19.0991 122.504 20.0831C122.504 21.0671 122.852 21.9191 123.548 22.6391C124.244 23.3351 125.084 23.6831 126.068 23.6831Z" fill="white"/>
<path d="M148.868 29.3711C147.308 29.3711 145.844 28.9631 144.476 28.1471C143.132 27.3071 142.052 26.1791 141.236 24.7631C140.42 23.3231 140.012 21.7271 140.012 19.9751C140.012 18.2471 140.42 16.6871 141.236 15.2951C142.052 13.8791 143.144 12.7751 144.512 11.9831C145.88 11.1911 147.332 10.7951 148.868 10.7951C150.116 10.7951 151.268 11.1431 152.324 11.8391C153.404 12.5351 154.22 13.5791 154.772 14.9711V10.7951H162.332V29.0831H154.772V25.7351C153.572 28.1591 151.604 29.3711 148.868 29.3711ZM151.208 23.6831C152.168 23.6831 152.984 23.3471 153.656 22.6751C154.352 21.9791 154.724 21.1631 154.772 20.2271V19.9391C154.724 18.9791 154.34 18.1631 153.62 17.4911C152.924 16.8191 152.12 16.4831 151.208 16.4831C150.2 16.4831 149.336 16.8431 148.616 17.5631C147.92 18.2591 147.572 19.0991 147.572 20.0831C147.572 21.0911 147.932 21.9431 148.652 22.6391C149.372 23.3351 150.224 23.6831 151.208 23.6831Z" fill="white"/>
<path d="M165.978 11.2991H173.214V14.9711C174.606 12.1871 176.814 10.7951 179.838 10.7951C182.142 10.7951 183.942 11.6231 185.238 13.2791C186.558 14.9111 187.218 17.1791 187.218 20.0831V29.0831H179.658V19.3271C179.658 18.2951 179.43 17.5031 178.974 16.9511C178.542 16.3991 177.93 16.1231 177.138 16.1231C176.562 16.1231 175.998 16.3151 175.446 16.6991C174.894 17.0591 174.438 17.5871 174.078 18.2831C173.742 18.9791 173.574 19.7711 173.574 20.6591V29.0831H165.978V11.2991Z" fill="white"/>
</svg>
