<svg width="177" height="30" viewBox="0 0 177 30" fill="none" xmlns="http://www.w3.org/2000/svg">
<path d="M170.435 24.0428C169.87 23.4133 169.392 22.7109 169.011 21.9542C168.411 20.7681 167.58 19.7151 166.569 18.8573C165.558 17.9995 164.387 17.3542 163.124 16.9594C162.02 16.6156 160.865 16.4697 159.711 16.5282C160.551 16.4799 161.378 16.753 162.026 17.2931C162.675 17.833 163.097 18.5999 163.208 19.44C163.511 21.2552 164.31 22.9496 165.515 24.334C166.719 25.7183 168.282 26.7381 170.029 27.2794C172.026 27.8977 174.166 27.8644 176.144 27.1842C173.941 26.8223 171.927 25.7142 170.435 24.0428Z" fill="white"/>
<path d="M156.272 16.3489C156.529 17.4696 156.981 18.5373 157.608 19.5038C157.151 18.802 156.974 17.9554 157.115 17.1311C157.255 16.3067 157.701 15.5644 158.365 15.0505C159.776 13.892 160.836 12.3675 161.425 10.6467C162.015 8.92589 162.112 7.07641 161.705 5.30423C161.241 3.27691 160.14 1.44854 158.56 0.0830078C159.346 2.16934 159.392 4.45967 158.688 6.57501C158.419 7.37361 158.045 8.13342 157.575 8.83478C156.854 9.93654 156.363 11.1707 156.13 12.4642C155.898 13.7576 155.929 15.0842 156.222 16.3655L156.272 16.3489Z" fill="white"/>
<path d="M161.192 20.251C160.819 21.005 160.179 21.5877 159.401 21.8823C158.622 22.177 157.763 22.1617 156.995 21.8396C155.303 21.1954 153.467 21.0419 151.694 21.3962C149.921 21.7506 148.28 22.5989 146.954 23.8464C145.442 25.2752 144.416 27.1549 144.023 29.2144C145.43 27.4796 147.377 26.284 149.543 25.8252C150.357 25.6561 151.188 25.5905 152.018 25.6301C153.319 25.6987 154.621 25.5016 155.846 25.0507C157.071 24.5997 158.195 23.9041 159.151 23.0047C159.988 22.2152 160.682 21.2833 161.203 20.251H161.192Z" fill="white"/>
<path d="M0.269531 29.0827H4.98553V17.5987C4.98553 16.3267 5.33353 15.3067 6.02953 14.5387C6.72553 13.7707 7.63753 13.3867 8.76553 13.3867C9.91753 13.3867 10.8295 13.7707 11.5015 14.5387C12.1975 15.2827 12.5455 16.3027 12.5455 17.5987V29.0827H17.2615V17.5987C17.2615 16.3267 17.6095 15.3067 18.3055 14.5387C19.0015 13.7707 19.9135 13.3867 21.0415 13.3867C22.1935 13.3867 23.1055 13.7707 23.7775 14.5387C24.4735 15.2827 24.8215 16.3027 24.8215 17.5987V29.0827H29.5375V16.4827C29.5375 15.0187 29.2135 13.7347 28.5655 12.6307C27.9415 11.5027 27.0895 10.6267 26.0095 10.0027C24.9295 9.3787 23.6935 9.0667 22.3015 9.0667C21.0055 9.0667 19.8295 9.3307 18.7735 9.8587C17.7415 10.3867 16.8895 11.1787 16.2175 12.2347C15.6415 11.2747 14.8135 10.5067 13.7335 9.9307C12.6775 9.3547 11.4895 9.0667 10.1695 9.0667C8.94553 9.0667 7.85353 9.3067 6.89353 9.7867C5.93353 10.2667 5.20153 10.9867 4.69753 11.9467V9.4987H0.269531V29.0827Z" fill="white"/>
<path d="M39.4673 29.5147C42.0113 29.5147 44.0513 28.6747 45.5873 26.9947V29.0827H50.0513V16.0507C50.0513 14.6827 49.7033 13.4707 49.0073 12.4147C48.3113 11.3587 47.3513 10.5427 46.1273 9.9667C44.9273 9.3667 43.5233 9.0667 41.9153 9.0667C39.9473 9.0667 38.1953 9.5347 36.6593 10.4707C35.1233 11.4067 34.0673 12.6427 33.4913 14.1787L37.3433 16.0507C37.7033 15.1627 38.2673 14.4547 39.0353 13.9267C39.8033 13.3747 40.7033 13.0987 41.7353 13.0987C42.8153 13.0987 43.6793 13.3867 44.3273 13.9627C44.9993 14.5147 45.3353 15.2107 45.3353 16.0507V16.6987L39.5033 17.6347C37.1993 18.0187 35.4953 18.7507 34.3913 19.8307C33.2873 20.9107 32.7353 22.2667 32.7353 23.8987C32.7353 25.6267 33.3473 26.9947 34.5713 28.0027C35.7953 29.0107 37.4273 29.5147 39.4673 29.5147ZM37.6313 23.7187C37.6313 22.3507 38.5553 21.4867 40.4033 21.1267L45.3353 20.2987V21.0907C45.3353 22.4347 44.8673 23.5747 43.9313 24.5107C43.0193 25.4467 41.8193 25.9147 40.3313 25.9147C39.5393 25.9147 38.8913 25.7227 38.3873 25.3387C37.8833 24.9307 37.6313 24.3907 37.6313 23.7187Z" fill="white"/>
<path d="M54.4102 29.0827H59.1262V18.1747C59.1262 16.6867 59.5342 15.5347 60.3502 14.7187C61.1902 13.8787 62.2702 13.4587 63.5902 13.4587H65.2822V9.2827H64.1302C62.9302 9.2827 61.8742 9.4987 60.9622 9.9307C60.0502 10.3627 59.3422 11.1427 58.8382 12.2707V9.4987H54.4102V29.0827Z" fill="white"/>
<path d="M77.3303 29.2987C78.1223 29.2987 78.9023 29.2387 79.6703 29.1187V25.0507C79.2143 25.1227 78.7943 25.1587 78.4103 25.1587C77.2583 25.1587 76.4183 24.8947 75.8903 24.3667C75.3623 23.8387 75.0983 23.0827 75.0983 22.0987V13.7107H79.5983V9.4987H75.0983V5.0347H70.3823V6.5467C70.3823 7.5067 70.1183 8.2387 69.5903 8.7427C69.0623 9.2467 68.3183 9.4987 67.3583 9.4987H66.9983V13.7107H70.3823V22.3507C70.3823 24.5347 70.9823 26.2387 72.1823 27.4627C73.4063 28.6867 75.1223 29.2987 77.3303 29.2987Z" fill="white"/>
<path d="M83.2734 7.3027H87.9894V2.2627H83.2734V7.3027ZM83.2734 29.0827H87.9894V9.4987H83.2734V29.0827Z" fill="white"/>
<path d="M92.3438 29.0827H97.0598V17.5987C97.0598 16.3267 97.4198 15.3067 98.1398 14.5387C98.8838 13.7707 99.8438 13.3867 101.02 13.3867C102.196 13.3867 103.144 13.7707 103.864 14.5387C104.608 15.2827 104.98 16.3027 104.98 17.5987V29.0827H109.696V16.4827C109.696 15.0187 109.384 13.7347 108.76 12.6307C108.136 11.5027 107.26 10.6267 106.132 10.0027C105.028 9.3787 103.756 9.0667 102.316 9.0667C101.092 9.0667 99.9878 9.3067 99.0038 9.7867C98.0438 10.2667 97.2998 10.9747 96.7718 11.9107V9.4987H92.3438V29.0827Z" fill="white"/>
<path d="M123.26 29.5147C125.156 29.5147 126.884 29.0827 128.444 28.2187C130.004 27.3307 131.252 26.1187 132.188 24.5827C133.124 23.0227 133.592 21.2587 133.592 19.2907C133.592 17.3227 133.124 15.5707 132.188 14.0347C131.276 12.4987 130.04 11.2867 128.48 10.3987C126.92 9.5107 125.18 9.0667 123.26 9.0667C121.316 9.0667 119.564 9.5107 118.004 10.3987C116.444 11.2867 115.196 12.4987 114.26 14.0347C113.348 15.5707 112.892 17.3227 112.892 19.2907C112.892 21.2587 113.348 23.0107 114.26 24.5467C115.196 26.0827 116.444 27.2947 118.004 28.1827C119.588 29.0707 121.34 29.5147 123.26 29.5147ZM123.26 25.1947C122.204 25.1947 121.256 24.9427 120.416 24.4387C119.6 23.9347 118.952 23.2387 118.472 22.3507C118.016 21.4387 117.788 20.4187 117.788 19.2907C117.788 18.1627 118.016 17.1547 118.472 16.2667C118.952 15.3787 119.6 14.6827 120.416 14.1787C121.256 13.6507 122.204 13.3867 123.26 13.3867C124.316 13.3867 125.24 13.6507 126.032 14.1787C126.848 14.6827 127.484 15.3787 127.94 16.2667C128.42 17.1547 128.66 18.1627 128.66 19.2907C128.66 20.4187 128.42 21.4387 127.94 22.3507C127.484 23.2387 126.848 23.9347 126.032 24.4387C125.24 24.9427 124.316 25.1947 123.26 25.1947Z" fill="white"/>
</svg>
