<svg width="188" height="40" viewBox="0 0 188 40" fill="none" xmlns="http://www.w3.org/2000/svg">
<path d="M21.8412 6.88515L23.3283 5.39808C26.2485 2.47785 31.0027 2.40557 33.9397 5.30897C35.0526 6.41157 35.7922 7.83508 36.0546 9.37956C36.3169 10.9241 36.0888 12.5119 35.4023 13.9201C35.0731 14.5928 34.9622 15.3515 35.0849 16.0903C35.2079 16.8291 35.5584 17.5111 36.0877 18.041C37.0609 17.0655 37.8323 15.9078 38.3579 14.634C38.8836 13.3603 39.1532 11.9955 39.1513 10.6175C39.1492 9.23957 38.8759 7.87551 38.3467 6.60326C37.8174 5.331 37.0426 4.17549 36.0666 3.20274C31.9597 -0.88102 25.2934 -0.799754 21.198 3.29548L7.02363 17.4694L5.85837 16.3042C2.88862 13.3344 2.86969 8.48007 5.89184 5.56309C7.0105 4.48669 8.4357 3.78401 9.97073 3.55207C11.5058 3.32013 13.0749 3.57035 14.4617 4.26819C15.0946 4.59255 15.8139 4.70857 16.5168 4.59972C17.2196 4.49086 17.8701 4.16268 18.3753 3.66204L18.4114 3.62609C18.4227 3.61492 18.4316 3.60163 18.4377 3.58699C18.4437 3.57236 18.4469 3.55666 18.4469 3.54081C18.4469 3.52496 18.4437 3.50926 18.4377 3.49463C18.4316 3.48 18.4227 3.46671 18.4114 3.45553C16.4605 1.55364 13.8462 0.485352 11.1216 0.476715C8.39711 0.46808 5.77606 1.51977 3.81314 3.40925C-0.415183 7.49111 -0.400074 14.2788 3.75578 18.4347L17.9259 32.6048L16.4207 34.1101C13.5004 37.0303 8.74609 37.1026 5.80923 34.1992C4.69634 33.0966 3.95678 31.673 3.69442 30.1286C3.43207 28.5842 3.66008 26.9963 4.34644 25.588C4.67573 24.9153 4.78671 24.1566 4.6639 23.4179C4.54106 22.6791 4.19054 21.997 3.66132 21.4672C2.6881 22.4427 1.91662 23.6003 1.39094 24.874C0.86527 26.1479 0.595714 27.5126 0.597667 28.8907C0.59962 30.2686 0.873045 31.6327 1.40233 32.9048C1.93161 34.1772 2.70638 35.3327 3.68235 36.3054C7.78907 40.3894 14.4556 40.3083 18.551 36.2129L32.7437 22.02L33.9134 23.1896C36.8336 26.1098 36.9059 30.864 34.0025 33.8009C32.8999 34.9139 31.4763 35.6534 29.9319 35.9159C28.3874 36.1782 26.7996 35.9501 25.3913 35.2637C24.7184 34.9342 23.9593 34.8231 23.2203 34.9462C22.4812 35.0692 21.799 35.4201 21.2691 35.9497C22.2447 36.923 23.4023 37.6946 24.676 38.2202C25.9498 38.7459 27.3145 39.0155 28.6926 39.0136C30.0705 39.0115 31.4346 38.738 32.7068 38.2087C33.9791 37.6795 35.1346 36.9047 36.1073 35.9287C40.1913 31.822 40.11 25.1555 36.0148 21.0603L21.8412 6.88515ZM20.0419 30.4879L9.14019 19.5862L19.7245 9.00208L30.6262 19.9038L20.0419 30.4879Z" fill="white"/>
<path d="M57.2496 32.3965C55.0802 32.3965 53.4218 31.76 52.2744 30.4871C51.1359 29.2142 50.4995 27.4751 50.365 25.2699L53.8073 24.4093C53.9776 27.8516 55.1251 29.5728 57.2496 29.5728C58.9707 29.5728 59.8313 28.7122 59.8313 26.991C59.8313 26.4801 59.7596 26.0094 59.6162 25.5792C59.4817 25.1399 59.271 24.741 58.9842 24.3824C58.6973 24.0149 58.4374 23.7235 58.2043 23.5084C57.9712 23.2843 57.653 23.0109 57.2496 22.6882L52.9467 19.2459C52.1579 18.6273 51.5259 17.843 51.0508 16.8928C50.5846 15.9336 50.3516 14.8444 50.3516 13.6253C50.3516 11.8503 50.9029 10.4385 52.0055 9.38964C53.1081 8.34082 54.5693 7.81641 56.389 7.81641C58.3432 7.81641 59.8941 8.296 61.0415 9.25518C62.1979 10.2054 62.9105 11.5545 63.1795 13.3026C63.2064 13.4908 63.2377 13.7508 63.2736 14.0824L59.8313 14.943C59.8223 14.7906 59.7999 14.562 59.7641 14.2573C59.6117 13.1636 59.2666 12.2896 58.7287 11.6352C58.1998 10.9718 57.4199 10.6402 56.389 10.6402C55.5643 10.6402 54.9278 10.8732 54.4796 11.3394C54.0314 11.7966 53.8073 12.4375 53.8073 13.2622C53.8073 14.6158 54.381 15.7498 55.5284 16.6642L59.8313 20.1065C62.1262 21.9621 63.2736 24.1807 63.2736 26.7624C63.2736 28.5284 62.7268 29.9089 61.6331 30.9039C60.5484 31.899 59.0873 32.3965 57.2496 32.3965Z" fill="white"/>
<path d="M70.4674 29.5728C71.3728 29.5728 72.2334 29.3397 73.0492 28.8735V18.224C73.0133 18.206 72.9237 18.1522 72.7802 18.0626C72.6368 17.973 72.5337 17.9147 72.471 17.8878C72.4172 17.8519 72.3231 17.7982 72.1886 17.7264C72.0541 17.6547 71.9421 17.6054 71.8524 17.5785C71.7717 17.5427 71.6642 17.5068 71.5297 17.471C71.4042 17.4261 71.2787 17.3948 71.1532 17.3768C71.0367 17.3589 70.9112 17.3499 70.7767 17.3499C70.4899 17.3499 70.2344 17.4172 70.0103 17.5516C69.7951 17.6771 69.6158 17.8295 69.4724 18.0088C69.329 18.1881 69.2035 18.4436 69.0959 18.7753C68.9973 19.1069 68.9256 19.4028 68.8808 19.6627C68.8359 19.9137 68.8001 20.2544 68.7732 20.6847C68.7463 21.106 68.7284 21.4332 68.7194 21.6662C68.7194 21.8993 68.7194 22.2265 68.7194 22.6478C68.7194 22.6658 68.7194 22.6792 68.7194 22.6882C68.7194 22.8406 68.7194 23.0871 68.7194 23.4277C68.7194 23.7684 68.7194 24.0956 68.7194 24.4093C68.7194 24.7231 68.7194 25.0189 68.7194 25.2968C68.7284 25.8974 68.7553 26.4263 68.8001 26.8835C68.8539 27.3317 68.939 27.7754 69.0556 28.2147C69.1811 28.6449 69.3604 28.9811 69.5934 29.2231C69.8355 29.4562 70.1268 29.5728 70.4674 29.5728ZM73.0492 37.3179V30.6081C72.5382 31.137 72.0093 31.5673 71.4625 31.899C70.9246 32.2307 70.3061 32.3965 69.6069 32.3965C68.9435 32.3965 68.3519 32.2307 67.8319 31.899C67.321 31.5583 66.9086 31.1236 66.5949 30.5947C66.2901 30.0658 66.0346 29.4428 65.8284 28.7256C65.6312 27.9995 65.4923 27.2869 65.4116 26.5876C65.3399 25.8884 65.304 25.1623 65.304 24.4093V21.7873C65.304 21.0074 65.3399 20.2947 65.4116 19.6493C65.4833 19.0038 65.6133 18.3674 65.8015 17.7399C65.9898 17.1124 66.2363 16.5835 66.5411 16.1532C66.8548 15.714 67.2672 15.3643 67.7782 15.1044C68.2891 14.8354 68.8808 14.701 69.5531 14.701C69.9386 14.701 70.2971 14.7548 70.6288 14.8623C70.9694 14.9609 71.2922 15.1223 71.5969 15.3464C71.9107 15.5705 72.1527 15.7677 72.3231 15.9381C72.5023 16.0994 72.7444 16.3415 73.0492 16.6642V14.943H76.4915V37.3179H73.0492Z" fill="white"/>
<path d="M81.7087 32.3965C80.9557 32.3965 80.3506 32.1321 79.8934 31.6032C79.4362 31.0653 79.2076 30.4019 79.2076 29.6131V14.943H82.6499V28.5643C82.6499 28.9228 82.7575 29.2142 82.9726 29.4383C83.1967 29.6624 83.4836 29.7744 83.8332 29.7744C84.0215 29.7744 84.2052 29.752 84.3845 29.7072C84.5638 29.6624 84.7386 29.5862 84.9089 29.4786C85.0882 29.3621 85.2272 29.2724 85.3258 29.2097C85.4244 29.138 85.5633 29.0214 85.7426 28.8601C85.9309 28.6987 86.0474 28.6001 86.0922 28.5643V14.943H89.5345V32.1545H86.0922V30.2989C85.7516 30.5947 85.5006 30.8098 85.3392 30.9443C85.1868 31.0788 84.9493 31.2625 84.6265 31.4956C84.3038 31.7197 84.017 31.8855 83.766 31.9931C83.5239 32.0917 83.2192 32.1814 82.8516 32.262C82.4841 32.3517 82.1031 32.3965 81.7087 32.3965Z" fill="white"/>
<path d="M97.2528 29.5728C97.4948 29.5728 97.7279 29.501 97.952 29.3576C98.185 29.2142 98.3599 29.0752 98.4764 28.9408C98.5929 28.8063 98.7364 28.627 98.9067 28.4029C98.9336 28.3581 98.956 28.3267 98.9739 28.3088V23.5487C98.8305 23.6474 98.5929 23.7997 98.2612 24.0059C97.9296 24.2121 97.6651 24.3824 97.4679 24.5169C97.2707 24.6424 97.0331 24.8217 96.7552 25.0547C96.4773 25.2789 96.2622 25.4985 96.1098 25.7136C95.9574 25.9198 95.823 26.1753 95.7064 26.4801C95.5899 26.7849 95.5316 27.1031 95.5316 27.4348C95.5316 28.8601 96.1053 29.5728 97.2528 29.5728ZM95.5316 32.3965C94.5724 32.3965 93.7567 31.9841 93.0844 31.1594C92.421 30.3258 92.0893 29.389 92.0893 28.3491C92.0893 27.5154 92.2283 26.758 92.5062 26.0767C92.793 25.3954 93.0933 24.8531 93.4071 24.4497C93.7208 24.0373 94.2452 23.616 94.9803 23.1857C95.7154 22.7464 96.2712 22.4461 96.6477 22.2848C97.0242 22.1234 97.6786 21.859 98.6109 21.4914C98.7722 21.4287 98.8932 21.3794 98.9739 21.3435V20.1065C98.9739 19.2369 98.8529 18.5646 98.6109 18.0895C98.3688 17.6054 97.9161 17.3634 97.2528 17.3634C96.6611 17.3634 96.2353 17.5696 95.9753 17.9819C95.7243 18.3853 95.5809 18.9456 95.5451 19.6627C95.5361 19.7613 95.5316 19.9092 95.5316 20.1065H92.0893C92.1073 18.457 92.5689 17.1438 93.4743 16.1666C94.3797 15.1895 95.6392 14.701 97.2528 14.701C98.8574 14.701 100.117 15.1985 101.031 16.1935C101.955 17.1796 102.416 18.4839 102.416 20.1065V27.8516C102.416 29.6445 102.564 31.0788 102.86 32.1545H99.4311L98.9739 29.5728C98.7946 29.9313 98.6467 30.2092 98.5302 30.4064C98.4226 30.6036 98.2612 30.8502 98.0461 31.146C97.831 31.4328 97.6158 31.657 97.4007 31.8183C97.1855 31.9707 96.9166 32.1052 96.5939 32.2217C96.2712 32.3382 95.9171 32.3965 95.5316 32.3965Z" fill="white"/>
<path d="M105.388 32.1545V14.943H108.83V17.2424C109.18 16.5611 109.686 15.9694 110.35 15.4674C111.022 14.9565 111.766 14.701 112.582 14.701C112.609 14.701 112.792 14.7189 113.133 14.7548V18.5601C112.497 18.3091 111.86 18.1836 111.224 18.1836C110.506 18.1836 109.928 18.3988 109.489 18.829C109.05 19.2593 108.83 19.8286 108.83 20.5367V32.1545H105.388Z" fill="white"/>
<path d="M119.453 32.3965C118.619 32.3965 117.893 32.2531 117.275 31.9662C116.665 31.6794 116.176 31.3073 115.809 30.8502C115.45 30.384 115.159 29.7924 114.935 29.0752C114.711 28.3491 114.554 27.6275 114.464 26.9104C114.384 26.1842 114.334 25.3416 114.316 24.3824C114.289 23.6294 114.289 22.8764 114.316 22.1234C114.343 21.227 114.401 20.4337 114.491 19.7434C114.59 19.0442 114.756 18.3674 114.989 17.713C115.222 17.0586 115.522 16.5207 115.89 16.0994C116.266 15.6781 116.755 15.3419 117.355 15.0909C117.965 14.831 118.673 14.701 119.48 14.701C120.215 14.701 120.86 14.7996 121.416 14.9968C121.981 15.1851 122.447 15.4764 122.814 15.8708C123.191 16.2563 123.5 16.6866 123.742 17.1617C123.993 17.6368 124.182 18.215 124.307 18.8963C124.433 19.5686 124.518 20.232 124.562 20.8863C124.616 21.5407 124.643 22.2937 124.643 23.1454V23.5487H117.759V24.4093C117.759 24.5259 117.759 24.7096 117.759 24.9606C117.741 25.2923 117.736 25.6374 117.745 25.996C117.763 26.3456 117.781 26.6907 117.799 27.0314C117.817 27.372 117.866 27.6992 117.947 28.013C118.028 28.3178 118.126 28.5867 118.243 28.8198C118.359 29.0528 118.521 29.2366 118.727 29.3711C118.942 29.5055 119.193 29.5728 119.48 29.5728C119.838 29.5728 120.134 29.5055 120.367 29.3711C120.6 29.2276 120.771 29.017 120.878 28.7391C120.995 28.4612 121.075 28.1833 121.12 27.9054C121.165 27.6275 121.192 27.2779 121.201 26.8566V26.1305H124.616V26.8162C124.536 28.6539 124.083 30.0434 123.258 30.9846C122.433 31.9259 121.165 32.3965 119.453 32.3965ZM117.759 21.8276H121.174V20.7922C121.165 20.335 121.138 19.9361 121.093 19.5955C121.048 19.2548 120.968 18.9142 120.851 18.5736C120.744 18.2329 120.573 17.973 120.34 17.7937C120.107 17.6144 119.82 17.5247 119.48 17.5247C119.13 17.5247 118.834 17.6189 118.592 17.8071C118.359 17.9954 118.184 18.2688 118.068 18.6273C117.96 18.977 117.884 19.3221 117.839 19.6627C117.794 20.0034 117.768 20.4112 117.759 20.8863V21.8276Z" fill="white"/>
<path d="M133.572 32.3965C131.402 32.3965 129.744 31.76 128.596 30.4871C127.458 29.2142 126.821 27.4751 126.687 25.2699L130.129 24.4093C130.3 27.8516 131.447 29.5728 133.572 29.5728C135.293 29.5728 136.153 28.7122 136.153 26.991C136.153 26.4801 136.082 26.0094 135.938 25.5792C135.804 25.1399 135.593 24.741 135.306 24.3824C135.019 24.0149 134.759 23.7235 134.526 23.5084C134.293 23.2843 133.975 23.0109 133.572 22.6882L129.269 19.2459C128.48 18.6273 127.848 17.843 127.373 16.8928C126.907 15.9336 126.674 14.8444 126.674 13.6253C126.674 11.8503 127.225 10.4385 128.327 9.38964C129.43 8.34082 130.891 7.81641 132.711 7.81641C134.665 7.81641 136.216 8.296 137.364 9.25518C138.52 10.2054 139.233 11.5545 139.501 13.3026C139.528 13.4908 139.56 13.7508 139.596 14.0824L136.153 14.943C136.144 14.7906 136.122 14.562 136.086 14.2573C135.934 13.1636 135.589 12.2896 135.051 11.6352C134.522 10.9718 133.742 10.6402 132.711 10.6402C131.886 10.6402 131.25 10.8732 130.802 11.3394C130.353 11.7966 130.129 12.4375 130.129 13.2622C130.129 14.6158 130.703 15.7498 131.85 16.6642L136.153 20.1065C138.448 21.9621 139.596 24.1807 139.596 26.7624C139.596 28.5284 139.049 29.9089 137.955 30.9039C136.87 31.899 135.409 32.3965 133.572 32.3965Z" fill="white"/>
<path d="M146.736 32.3965C145.382 32.3965 144.396 32.0514 143.777 31.3611C143.168 30.6709 142.854 29.6265 142.836 28.2281V17.5247H141.115V14.943H142.836V8.91901H146.278V14.943H148.86V17.5247H146.278V27.5692C146.278 28.2595 146.373 28.766 146.561 29.0887C146.749 29.4114 147.13 29.5728 147.704 29.5728C147.955 29.5728 148.34 29.5279 148.86 29.4383V32.2351C148 32.3427 147.291 32.3965 146.736 32.3965Z" fill="white"/>
<path d="M160.075 30.7829C159.277 31.8586 157.954 32.3965 156.108 32.3965C154.261 32.3965 152.939 31.8586 152.141 30.7829C151.343 29.7072 150.944 28.1564 150.944 26.1305V20.967C150.944 18.9411 151.343 17.3903 152.141 16.3146C152.939 15.2388 154.261 14.701 156.108 14.701C157.954 14.701 159.277 15.2388 160.075 16.3146C160.872 17.3903 161.271 18.9411 161.271 20.967V26.1305C161.271 28.1564 160.872 29.7072 160.075 30.7829ZM155.462 29.4652C155.651 29.5369 155.866 29.5728 156.108 29.5728C156.35 29.5728 156.561 29.5369 156.74 29.4652C156.928 29.3935 157.08 29.3083 157.197 29.2097C157.323 29.1021 157.426 28.9497 157.506 28.7525C157.587 28.5463 157.65 28.3671 157.695 28.2147C157.739 28.0623 157.771 27.8426 157.789 27.5558C157.807 27.2689 157.816 27.0448 157.816 26.8835C157.825 26.7131 157.829 26.4621 157.829 26.1305V20.967C157.829 20.6353 157.825 20.3888 157.816 20.2275C157.816 20.0572 157.807 19.8286 157.789 19.5417C157.771 19.2548 157.739 19.0352 157.695 18.8828C157.65 18.7304 157.587 18.5556 157.506 18.3584C157.426 18.1522 157.323 17.9998 157.197 17.9012C157.08 17.7937 156.928 17.704 156.74 17.6323C156.561 17.5606 156.35 17.5247 156.108 17.5247C155.866 17.5247 155.651 17.5606 155.462 17.6323C155.283 17.704 155.131 17.7937 155.005 17.9012C154.889 17.9998 154.79 18.1522 154.709 18.3584C154.629 18.5556 154.566 18.7304 154.521 18.8828C154.476 19.0352 154.445 19.2548 154.427 19.5417C154.409 19.8286 154.396 20.0572 154.387 20.2275C154.387 20.3888 154.387 20.6353 154.387 20.967V26.1305C154.387 26.4621 154.387 26.7131 154.387 26.8835C154.396 27.0448 154.409 27.2689 154.427 27.5558C154.445 27.8426 154.476 28.0623 154.521 28.2147C154.566 28.3671 154.629 28.5463 154.709 28.7525C154.79 28.9497 154.889 29.1021 155.005 29.2097C155.131 29.3083 155.283 29.3935 155.462 29.4652Z" fill="white"/>
<path d="M164.095 32.1545V14.943H167.537V16.7986C168.048 16.3325 168.465 15.9784 168.788 15.7364C169.111 15.4854 169.554 15.2523 170.119 15.0371C170.693 14.813 171.302 14.701 171.948 14.701C172.683 14.701 173.279 14.9699 173.736 15.5078C174.193 16.0456 174.422 16.7045 174.422 17.4844V32.1545H170.98V19.2459C170.98 18.6453 170.894 18.2105 170.724 17.9416C170.554 17.6637 170.209 17.5247 169.689 17.5247C169.393 17.5247 169.097 17.5875 168.801 17.713C168.514 17.8295 168.299 17.9416 168.156 18.0491C168.012 18.1478 167.806 18.3091 167.537 18.5332V32.1545H164.095Z" fill="white"/>
<path d="M182.302 32.3965C181.468 32.3965 180.742 32.2531 180.123 31.9662C179.514 31.6794 179.025 31.3073 178.658 30.8502C178.299 30.384 178.008 29.7924 177.784 29.0752C177.559 28.3491 177.403 27.6275 177.313 26.9104C177.232 26.1842 177.183 25.3416 177.165 24.3824C177.138 23.6294 177.138 22.8764 177.165 22.1234C177.192 21.227 177.25 20.4337 177.34 19.7434C177.438 19.0442 177.604 18.3674 177.837 17.713C178.07 17.0586 178.371 16.5207 178.738 16.0994C179.115 15.6781 179.603 15.3419 180.204 15.0909C180.813 14.831 181.522 14.701 182.328 14.701C183.063 14.701 183.709 14.7996 184.265 14.9968C184.829 15.1851 185.296 15.4764 185.663 15.8708C186.04 16.2563 186.349 16.6866 186.591 17.1617C186.842 17.6368 187.03 18.215 187.156 18.8963C187.281 19.5686 187.366 20.232 187.411 20.8863C187.465 21.5407 187.492 22.2937 187.492 23.1454V23.5487H180.607V24.4093C180.607 24.5259 180.607 24.7096 180.607 24.9606C180.589 25.2923 180.585 25.6374 180.594 25.996C180.612 26.3456 180.63 26.6907 180.648 27.0314C180.666 27.372 180.715 27.6992 180.796 28.013C180.876 28.3178 180.975 28.5867 181.091 28.8198C181.208 29.0528 181.369 29.2366 181.575 29.3711C181.791 29.5055 182.042 29.5728 182.328 29.5728C182.687 29.5728 182.983 29.5055 183.216 29.3711C183.449 29.2276 183.619 29.017 183.727 28.7391C183.843 28.4612 183.924 28.1833 183.969 27.9054C184.014 27.6275 184.041 27.2779 184.05 26.8566V26.1305H187.465V26.8162C187.384 28.6539 186.932 30.0434 186.107 30.9846C185.282 31.9259 184.014 32.3965 182.302 32.3965ZM180.607 21.8276H184.023V20.7922C184.014 20.335 183.987 19.9361 183.942 19.5955C183.897 19.2548 183.816 18.9142 183.7 18.5736C183.592 18.2329 183.422 17.973 183.189 17.7937C182.956 17.6144 182.669 17.5247 182.328 17.5247C181.979 17.5247 181.683 17.6189 181.441 17.8071C181.208 17.9954 181.033 18.2688 180.917 18.6273C180.809 18.977 180.733 19.3221 180.688 19.6627C180.643 20.0034 180.616 20.4112 180.607 20.8863V21.8276Z" fill="white"/>
</svg>
