<svg width="165" height="38" viewBox="0 0 165 38" fill="none" xmlns="http://www.w3.org/2000/svg">
<path d="M31.6372 14.0753L31.6151 14.0532C31.6133 14.0519 31.6118 14.0503 31.6109 14.0484L17.7758 0.212891L3.94085 14.048C3.93926 14.0496 3.93837 14.0517 3.93676 14.0528L3.91393 14.0749C1.79837 16.2024 0.454625 18.9759 0.0963089 21.9548C-0.262007 24.9336 0.38567 27.9467 1.93637 30.5152C3.48708 33.0837 5.85183 35.0602 8.6547 36.1303C11.4576 37.2003 14.5377 37.3029 17.4055 36.4213C17.6468 36.3475 17.9047 36.3475 18.1461 36.4213C21.0136 37.3025 24.0936 37.2 26.8963 36.1297C29.699 35.0595 32.0634 33.0832 33.614 30.5149C35.1647 27.9466 35.8124 24.9336 35.4542 21.9549C35.0961 18.9763 33.7525 16.2027 31.6372 14.0753ZM8.86039 23.1986C8.79304 23.266 8.73963 23.346 8.70321 23.4339C8.66676 23.5218 8.64801 23.6161 8.64802 23.7113C8.67264 26.1532 9.36273 28.542 10.644 30.6208C10.6731 30.668 10.6866 30.7232 10.6824 30.7784C10.6783 30.8336 10.6568 30.8861 10.621 30.9284C10.5852 30.9708 10.537 31.0006 10.4832 31.0138C10.4294 31.027 10.3728 31.0229 10.3215 31.002C9.35823 30.5969 8.48317 30.0079 7.74524 29.2681C6.23298 27.7556 5.3828 25.7046 5.38143 23.5657C5.38005 21.4269 6.2276 19.3748 7.73794 17.8604L17.7758 7.82346L27.8132 17.8604C29.3238 19.3746 30.1716 21.4267 30.1702 23.5657C30.169 25.7046 29.3186 27.7556 27.8063 29.2681C27.0683 30.0079 26.1933 30.5969 25.2302 31.002C25.1788 31.0229 25.1222 31.027 25.0684 31.0138C25.0146 31.0006 24.9664 30.9706 24.9305 30.9284C24.8948 30.8861 24.8731 30.8336 24.869 30.7782C24.8649 30.723 24.8783 30.6678 24.9074 30.6206C26.189 28.542 26.8795 26.1532 26.9045 23.7113C26.9045 23.6161 26.8855 23.5218 26.8489 23.4337C26.8123 23.3456 26.7587 23.2658 26.6912 23.1985L21.9434 18.1626C21.8961 18.1231 21.8366 18.1015 21.775 18.1015C21.7135 18.1015 21.6539 18.1231 21.6067 18.1626C21.5594 18.2019 21.5276 18.2567 21.5165 18.3173C21.5054 18.3778 21.5159 18.4402 21.5463 18.4938C23.3902 21.8306 21.8046 26.6235 19.1604 29.2681L19.1465 29.2821C18.7815 29.6431 18.2888 29.8455 17.7755 29.8453C17.2621 29.8451 16.7695 29.6424 16.4048 29.2812L16.392 29.2681C13.7468 26.6235 12.162 21.8311 14.0062 18.4945C14.0365 18.4409 14.0471 18.3785 14.036 18.318C14.025 18.2574 13.9931 18.2026 13.9459 18.1633C13.8986 18.1238 13.839 18.1022 13.7775 18.1022C13.7159 18.1022 13.6563 18.1238 13.6091 18.1633L8.86039 23.1986Z" fill="white"/>
<path d="M65.6756 11.7675H70.2545L65.505 27.6372H60.2719L58.0536 18.2519L55.8068 27.6372H50.5738L45.8242 11.7675H50.6875L53.1618 22.9161L55.6077 11.7675H60.7554L63.2013 22.9161L65.6756 11.7675Z" fill="white"/>
<path d="M82.1486 22.6033C82.8501 21.9207 83.2009 20.9537 83.2009 19.7023C83.2009 18.451 82.8501 17.4935 82.1486 16.8299C81.447 16.1473 80.6412 15.806 79.7312 15.806C78.8211 15.806 78.0152 16.1473 77.3137 16.8299C76.6122 17.5124 76.2614 18.4794 76.2614 19.7308C76.2614 20.9822 76.6122 21.9491 77.3137 22.6317C78.0152 23.2953 78.8211 23.6271 79.7312 23.6271C80.6412 23.6271 81.447 23.2858 82.1486 22.6033ZM73.4174 25.5611C72.0143 24.0442 71.3128 22.1008 71.3128 19.7308C71.3128 17.3607 72.0143 15.4173 73.4174 13.9005C74.8204 12.3647 76.5269 11.5968 78.5367 11.5968C80.5654 11.5968 82.1201 12.3458 83.2009 13.8436V11.7675H88.0642V27.6372H83.2009V25.3335C82.0253 27.002 80.4516 27.8363 78.4798 27.8363C76.5079 27.8363 74.8204 27.0779 73.4174 25.5611Z" fill="white"/>
<path d="M90.3179 11.7675H95.494L99.1059 23.5702L102.718 11.7675H107.894L102.263 27.6372H95.9491L90.3179 11.7675Z" fill="white"/>
<path d="M116.881 27.8363C114.567 27.8363 112.671 27.0968 111.192 25.6179C109.714 24.1201 108.974 22.1387 108.974 19.6739C108.974 17.2091 109.704 15.2467 111.164 13.7867C112.643 12.3268 114.548 11.5968 116.881 11.5968C119.213 11.5968 121.147 12.3173 122.682 13.7583C124.218 15.1993 124.986 17.1996 124.986 19.7592C124.986 20.3091 124.948 20.821 124.872 21.295H113.951C114.046 21.9965 114.359 22.5748 114.89 23.0299C115.421 23.466 115.989 23.684 116.596 23.684C117.222 23.684 117.686 23.6271 117.99 23.5133C118.293 23.3806 118.511 23.2574 118.644 23.1436C118.795 23.0109 118.985 22.8023 119.213 22.5179H124.474C124.019 24.1106 123.109 25.3999 121.744 26.3858C120.379 27.3528 118.758 27.8363 116.881 27.8363ZM119.924 18.2519C119.848 17.5124 119.525 16.9152 118.957 16.4601C118.388 15.9861 117.715 15.7491 116.937 15.7491C116.16 15.7491 115.506 15.9861 114.975 16.4601C114.444 16.9152 114.112 17.5124 113.98 18.2519H119.924Z" fill="white"/>
<path d="M132.973 11.7675V14.7253C134.111 12.6396 135.628 11.5968 137.524 11.5968V16.5455H136.329C135.21 16.5455 134.367 16.8109 133.798 17.3418C133.248 17.8727 132.973 18.8017 132.973 20.1289V27.6372H128.11V11.7675H132.973Z" fill="white"/>
<path d="M144.6 9.97573C144.05 10.5256 143.377 10.8005 142.581 10.8005C141.785 10.8005 141.112 10.5256 140.562 9.97573C140.012 9.42588 139.737 8.75279 139.737 7.95646C139.737 7.14117 140.012 6.4586 140.562 5.90875C141.112 5.35891 141.785 5.08398 142.581 5.08398C143.377 5.08398 144.05 5.35891 144.6 5.90875C145.15 6.4586 145.425 7.14117 145.425 7.95646C145.425 8.75279 145.15 9.42588 144.6 9.97573ZM140.164 27.6372V11.7675H145.027V27.6372H140.164Z" fill="white"/>
<path d="M158.829 22.6601C159.473 21.9776 159.796 20.9916 159.796 19.7023C159.796 18.413 159.464 17.4366 158.8 16.773C158.137 16.0904 157.35 15.7491 156.44 15.7491C155.53 15.7491 154.743 16.0904 154.079 16.773C153.435 17.4366 153.112 18.413 153.112 19.7023C153.112 20.9916 153.444 21.9776 154.108 22.6601C154.79 23.3427 155.587 23.684 156.497 23.684C157.407 23.684 158.184 23.3427 158.829 22.6601ZM150.553 25.5895C148.96 24.0916 148.164 22.1198 148.164 19.6739C148.164 17.228 148.96 15.2751 150.553 13.8152C152.145 12.3363 154.117 11.5968 156.468 11.5968C158.819 11.5968 160.782 12.3363 162.355 13.8152C163.948 15.2751 164.744 17.228 164.744 19.6739C164.744 22.1198 163.957 24.0916 162.384 25.5895C160.81 27.0874 158.848 27.8363 156.497 27.8363C154.146 27.8363 152.164 27.0874 150.553 25.5895Z" fill="white"/>
</svg>
