<svg width="180" height="36" viewBox="0 0 180 36" fill="none" xmlns="http://www.w3.org/2000/svg">
<path d="M6.90683 11.9599L11.3395 9.40349L8.86525 5.12032H32.1348L20.5038 25.2728L18.0295 20.9821L13.5969 23.546L20.5038 35.5061L41 0H0L6.90683 11.9599Z" fill="white"/>
<path d="M59.3895 29L68.2395 8H64.0095L57.7695 23.24L51.4995 8H47.2695L56.1195 29H59.3895Z" fill="white"/>
<path d="M73.2434 8V29H88.8734V25.28H77.2634V20.24H87.0734V16.52H77.2634V11.72H88.7234V8H73.2434Z" fill="white"/>
<path d="M94.6419 8V29H98.6619V21.59H103.552L107.962 29H112.432L107.632 20.9C110.062 19.82 111.622 17.51 111.622 14.78C111.622 12.86 110.932 11.24 109.522 9.95C108.142 8.66 106.432 8 104.362 8H94.6419ZM104.362 11.72C106.132 11.72 107.422 13.01 107.422 14.78C107.422 16.55 106.132 17.87 104.362 17.87H98.6619V11.72H104.362Z" fill="white"/>
<path d="M123.181 11.72V29H127.231V11.72H134.191V8H116.221V11.72H123.181Z" fill="white"/>
<path d="M139.665 8V29H155.295V25.28H143.685V20.24H153.495V16.52H143.685V11.72H155.145V8H139.665Z" fill="white"/>
<path d="M167.394 18.29L159.594 29H164.424L169.794 21.59L175.164 29H179.964L172.194 18.29L179.664 8H174.864L169.794 14.99L164.724 8H159.894L167.394 18.29Z" fill="white"/>
</svg>
