<svg width="162" height="32" viewBox="0 0 162 32" fill="none" xmlns="http://www.w3.org/2000/svg">
<path d="M31.4723 26.1655C31.2157 25.7571 30.8803 25.404 30.4857 25.1267C30.0911 24.8494 29.6452 24.6536 29.174 24.5507C27.3713 24.1314 25.8079 23.0157 24.8254 21.4472C23.8428 19.8788 23.5211 17.9852 23.9304 16.1802C24.0877 15.4826 24.0355 14.7541 23.7801 14.086C23.5248 13.418 23.0778 12.8403 22.4952 12.4256C21.9126 12.0108 21.2204 11.7775 20.5056 11.7548C19.7908 11.7321 19.0853 11.9211 18.4776 12.2981C17.8699 12.6751 17.3871 13.2232 17.0899 13.8737C16.7927 14.5242 16.6943 15.248 16.8072 15.9542C16.92 16.6604 17.2389 17.3175 17.724 17.843C18.209 18.3685 18.8386 18.739 19.5335 18.9079C20.4325 19.1107 21.2826 19.4889 22.0352 20.0209C22.7877 20.5528 23.4279 21.2281 23.919 22.008C24.41 22.7879 24.7423 23.657 24.8969 24.5655C25.0514 25.474 25.0251 26.4042 24.8195 27.3025C24.6977 27.8817 24.7194 28.4818 24.8827 29.0506C25.0461 29.6194 25.346 30.1396 25.7565 30.5659C26.1669 30.9923 26.6754 31.3117 27.2376 31.4965C27.7998 31.6813 28.3986 31.7257 28.9819 31.6261C29.5653 31.5264 30.1154 31.2855 30.5843 30.9245C31.0532 30.5635 31.4267 30.0933 31.6723 29.5549C31.9178 29.0164 32.028 28.4261 31.9932 27.8354C31.9583 27.2446 31.7795 26.6713 31.4723 26.1655Z" fill="white"/>
<path d="M9.16253 22.1373C9.79735 22.4837 10.5211 22.6326 11.2411 22.5647C11.9611 22.4969 12.6444 22.2155 13.2034 21.7567C13.7623 21.2978 14.1715 20.6824 14.3782 19.9894C14.585 19.2964 14.58 18.5575 14.3638 17.8674C14.0898 16.9874 13.9922 16.062 14.0766 15.1442C14.161 14.2264 14.4257 13.3344 14.8555 12.5191C15.2854 11.7038 15.8719 10.9814 16.5815 10.3933C17.291 9.8051 18.1097 9.36283 18.9905 9.0917C19.6737 8.87772 20.2783 8.46643 20.7282 7.90964C21.1782 7.35285 21.4534 6.6754 21.5192 5.96254C21.5851 5.24967 21.4386 4.53325 21.0983 3.90349C20.7579 3.27369 20.2388 2.75863 19.6064 2.42315C18.974 2.08767 18.2565 1.94671 17.5442 2.01808C16.8319 2.0894 16.1566 2.36982 15.6033 2.82409C15.05 3.27831 14.6434 3.88607 14.4346 4.57085C14.2259 5.25563 14.2244 5.98685 14.4303 6.67247C14.9708 8.44252 14.788 10.3546 13.9221 11.9903C13.0561 13.6259 11.5774 14.8518 9.80966 15.3998C9.11182 15.6021 8.49077 16.0093 8.02695 16.5686C7.56313 17.1279 7.27786 17.8136 7.20814 18.5368C7.13846 19.2601 7.28746 19.9876 7.63592 20.6252C7.98437 21.2628 8.51619 21.7811 9.16253 22.1131V22.1373Z" fill="white"/>
<path d="M18.4992 21.5441C18.0167 21.5611 17.5425 21.6741 17.1043 21.8766C16.666 22.0792 16.2726 22.367 15.9469 22.7235C14.6837 24.0747 12.9369 24.8707 11.0885 24.9375C9.23999 25.0044 7.44021 24.3367 6.08266 23.0803C5.73189 22.7512 5.31922 22.4951 4.8686 22.3269C4.41802 22.1587 3.93846 22.0818 3.45784 22.1006C2.86626 22.1285 2.29045 22.3008 1.78076 22.6024C1.27103 22.904 0.842943 23.3258 0.533773 23.8309C0.224559 24.336 0.0437316 24.9092 0.00697966 25.5003C-0.0297279 26.0914 0.0787508 26.6825 0.323038 27.2221C0.567326 27.7616 0.939911 28.2331 1.40835 28.5955C1.8768 28.958 2.42679 29.2002 3.01038 29.3011C3.59396 29.402 4.19342 29.3586 4.75634 29.1746C5.31931 28.9905 5.82864 28.6715 6.23989 28.2454C6.86551 27.568 7.6186 27.0207 8.45603 26.6349C9.2935 26.2491 10.1988 26.0322 11.1202 25.9968C12.0416 25.9614 12.9609 26.1081 13.8255 26.4286C14.6901 26.7491 15.4829 27.237 16.1587 27.8643C16.5986 28.2618 17.1292 28.5455 17.7041 28.6904C18.279 28.8354 18.8806 28.8373 19.4564 28.696C20.0322 28.5547 20.5646 28.2745 21.007 27.8798C21.4495 27.4851 21.7885 26.988 21.9944 26.432C22.2003 25.876 22.2668 25.2781 22.1882 24.6904C22.1095 24.1028 21.8881 23.5434 21.5432 23.0611C21.1983 22.5788 20.7406 22.1884 20.21 21.9239C19.6793 21.6595 19.0919 21.5291 18.4992 21.5441Z" fill="white"/>
<path d="M56.6367 26.4004C58.5853 26.4004 59.7998 25.693 60.2803 24.2783C60.4404 23.7445 60.5605 23.0638 60.6406 22.2363L59.5996 22.1963C59.4395 24.0381 58.9723 24.9723 58.1982 24.999C57.611 24.9456 57.3174 24.2783 57.3174 22.9971V14.6289C57.3174 11.2923 55.7692 9.23698 52.6729 8.46289C51.8721 8.27604 51.0046 8.18262 50.0703 8.18262C46.4401 8.18262 44.1579 8.97005 43.2236 10.5449C42.9834 10.9453 42.8633 11.3724 42.8633 11.8262C42.8633 12.8672 43.3571 13.5212 44.3447 13.7881C44.585 13.8682 44.8385 13.9082 45.1055 13.9082C46.2533 13.9082 47.0273 13.3477 47.4277 12.2266C47.4811 12.0664 47.5612 11.7995 47.668 11.4258C47.9616 10.3581 48.3353 9.69075 48.7891 9.42383C49.0827 9.29036 49.4163 9.22363 49.79 9.22363C51.0446 9.22363 51.8053 9.98438 52.0723 11.5059C52.179 12.0664 52.2324 12.7337 52.2324 13.5078V16.1104C45.3724 16.2438 41.929 18.0589 41.9023 21.5557C41.9023 23.9313 42.9434 25.4528 45.0254 26.1201C45.6393 26.307 46.32 26.4004 47.0674 26.4004C49.3363 26.4004 51.0046 25.5462 52.0723 23.8379C52.2858 23.4909 52.4593 23.1305 52.5928 22.7568C53.1533 25.0524 54.5013 26.2669 56.6367 26.4004ZM49.1494 24.6787C47.8148 24.6253 47.1341 23.4375 47.1074 21.1152C47.1074 19.3535 47.8281 18.2057 49.2695 17.6719C50.0436 17.4316 51.0312 17.2848 52.2324 17.2314V21.1152C51.7253 22.9837 50.9111 24.1315 49.79 24.5586C49.5498 24.6387 49.3363 24.6787 49.1494 24.6787Z" fill="white"/>
<path d="M72.0117 24.959H69.0488V16.3105C69.2357 13.5078 69.9163 11.7995 71.0908 11.1855C71.2777 11.1055 71.4512 11.0654 71.6113 11.0654C71.9049 11.0654 72.2253 11.3724 72.5723 11.9863C73.0527 12.8405 73.5732 13.3743 74.1338 13.5879C74.4007 13.668 74.6943 13.708 75.0146 13.708C76.0824 13.708 76.8431 13.2008 77.2969 12.1865C77.457 11.8395 77.5371 11.4792 77.5371 11.1055C77.5371 9.77083 76.8831 8.93001 75.5752 8.58301C75.2549 8.50293 74.9212 8.46289 74.5742 8.46289C72.9193 8.46289 71.4645 9.11686 70.21 10.4248C69.6494 11.0654 69.2223 11.7594 68.9287 12.5068L68.6484 8.7832H61.6416V9.82422H63.9639V22.877C63.9639 24.0514 63.4967 24.7188 62.5625 24.8789C62.2956 24.9323 61.9886 24.959 61.6416 24.959V26H72.9727C72.9727 25.3861 72.7992 25.0524 72.4521 24.999C72.3187 24.9723 72.1719 24.959 72.0117 24.959Z" fill="white"/>
<path d="M84.4238 17.3115C84.4238 13.5745 84.8776 11.1855 85.7852 10.1445C86.3457 9.5306 87.1331 9.22363 88.1475 9.22363C89.8558 9.22363 90.9502 10.0911 91.4307 11.8262C91.751 12.9473 91.9111 14.7223 91.9111 17.1514C91.9111 21.0485 91.404 23.5042 90.3896 24.5186C89.8024 25.0791 89.0417 25.3594 88.1074 25.3594C86.4525 25.3594 85.3848 24.5052 84.9043 22.7969C84.584 21.6491 84.4238 19.8206 84.4238 17.3115ZM88.3477 8.18262C85.0645 8.18262 82.542 9.30371 80.7803 11.5459C79.5524 13.1475 78.9385 15.016 78.9385 17.1514C78.9385 20.1676 79.9795 22.5566 82.0615 24.3184C83.7165 25.7064 85.6917 26.4004 87.9873 26.4004C91.137 26.4004 93.6061 25.266 95.3945 22.9971C96.7292 21.2887 97.3965 19.3135 97.3965 17.0713C97.3965 14.0817 96.3421 11.7461 94.2334 10.0645C92.6051 8.8099 90.6432 8.18262 88.3477 8.18262Z" fill="white"/>
<path d="M107.526 24.959H106.806L106.846 14.6289C107.006 12.5202 107.7 11.1455 108.928 10.5049C109.275 10.318 109.622 10.2246 109.969 10.2246C110.956 10.2246 111.664 10.8385 112.091 12.0664C112.278 12.6536 112.371 13.3076 112.371 14.0283V22.877C112.371 23.9714 112.118 24.6253 111.61 24.8389C111.37 24.9189 111.036 24.959 110.609 24.959V26H119.098C119.098 25.3861 118.924 25.0524 118.577 24.999C118.417 24.9723 118.257 24.959 118.097 24.959H117.416V14.709V14.4287C117.603 12.2132 118.324 10.8385 119.578 10.3047C119.845 10.1979 120.112 10.1445 120.379 10.1445C121.527 10.1445 122.314 10.8252 122.741 12.1865C122.901 12.7471 122.981 13.361 122.981 14.0283V22.877C122.981 23.9714 122.728 24.6253 122.221 24.8389C121.98 24.9189 121.647 24.959 121.22 24.959V26H130.349C130.349 25.3861 130.175 25.0524 129.828 24.999C129.668 24.9723 129.508 24.959 129.348 24.959H128.026V14.5088C128.026 11.8929 127.159 10.0378 125.424 8.94336C124.623 8.4362 123.756 8.18262 122.821 8.18262C120.232 8.20931 118.297 9.45052 117.016 11.9062C116.375 10.0111 115.241 8.82324 113.612 8.34277C113.185 8.236 112.758 8.18262 112.331 8.18262C109.769 8.20931 107.9 9.38379 106.726 11.7061L106.525 8.7832H99.3984V9.82422H101.721V22.877C101.721 24.1048 101.147 24.7855 99.999 24.9189C99.8122 24.9456 99.612 24.959 99.3984 24.959V26H108.487C108.487 25.3861 108.314 25.0524 107.967 24.999C107.833 24.9723 107.687 24.959 107.526 24.959Z" fill="white"/>
<path d="M140.839 24.959H139.357V8.7832H131.95V9.82422H134.272V22.877C134.272 24.0514 133.805 24.7188 132.871 24.8789C132.604 24.9323 132.297 24.959 131.95 24.959V26H141.8C141.8 25.3861 141.626 25.0524 141.279 24.999C141.146 24.9723 140.999 24.959 140.839 24.959ZM139.718 3.53809C139.718 2.36361 139.197 1.49609 138.156 0.935547C137.702 0.66862 137.222 0.535156 136.715 0.535156C135.567 0.535156 134.7 1.05566 134.112 2.09668C133.872 2.55046 133.752 3.03092 133.752 3.53809C133.752 4.71256 134.272 5.56673 135.313 6.10059C135.767 6.34082 136.234 6.46094 136.715 6.46094C137.889 6.46094 138.757 5.96712 139.317 4.97949C139.584 4.52572 139.718 4.04525 139.718 3.53809Z" fill="white"/>
<path d="M142.801 26H148.847V24.959H146.044L150.849 18.9531L154.853 24.959H152.65V26H161.899C161.899 25.3861 161.686 25.0524 161.259 24.999C161.152 24.9723 161.032 24.959 160.898 24.959H160.098L154.252 16.1504L158.216 10.9854C158.75 10.2646 159.43 9.86426 160.258 9.78418C160.658 9.73079 160.898 9.57064 160.979 9.30371C161.005 9.14355 161.019 8.97005 161.019 8.7832H155.093V9.82422H157.695L153.571 15.1494L150.048 9.82422H152.25V8.7832H142.961V9.82422H144.803L150.248 17.9922L145.523 23.7979C144.963 24.4652 144.282 24.8656 143.481 24.999C143.108 25.0257 142.894 25.1859 142.841 25.4795C142.814 25.6396 142.801 25.8132 142.801 26Z" fill="white"/>
</svg>
