<svg width="103" height="31" viewBox="0 0 103 31" fill="none" xmlns="http://www.w3.org/2000/svg">
<path d="M19.0777 7.15356C15.1269 7.15356 7.21325 3.9509 7.21325 0H7.15475C7.15475 3.16212 8.41086 6.19472 10.6468 8.43071C12.8827 10.6667 15.9152 11.9229 19.0774 11.9231C20.9746 11.9231 22.7942 12.6767 24.1359 14.0183C25.4775 15.3599 26.2312 17.1795 26.2312 19.0768C26.2316 20.974 25.4783 22.7939 24.1369 24.1357C22.7956 25.4777 20.9761 26.2317 19.0788 26.2321C17.1814 26.2324 15.3617 25.479 14.0198 24.1377C12.6779 22.7963 11.9239 20.9769 11.9235 19.0796C11.9235 17.5138 11.615 15.9634 11.0158 14.5168C10.4165 13.0703 9.53826 11.7559 8.43106 10.6487C7.32385 9.54162 6.00944 8.66341 4.56282 8.06426C3.11623 7.46512 1.56577 7.15678 0 7.15684V7.21487C3.95016 7.21487 7.15283 15.1252 7.1543 19.0766H7.15356C7.15354 21.4349 7.85277 23.74 9.16285 25.7008C10.4729 27.6615 12.335 29.1898 14.5137 30.0922C16.6923 30.9948 19.0896 31.231 21.4025 30.7709C23.7153 30.311 25.8398 29.1755 27.5074 27.5082C29.1749 25.8407 30.3105 23.7163 30.7708 21.4034C31.231 19.0906 30.9949 16.6933 30.0926 14.5146C29.1904 12.3359 27.6623 10.4737 25.7017 9.16343C23.7409 7.85318 21.4357 7.15374 19.0777 7.15356Z" fill="white"/>
<path d="M42.6725 29.2975C42.6725 29.6675 43.0055 30.0005 43.3755 30.0005H45.2255C45.6695 30.0005 46.2615 29.8525 46.2615 29.2975V18.2715H53.3285V29.2975C53.3285 29.6675 53.6615 30.0005 54.0315 30.0005H56.1405C56.5105 30.0005 56.8435 29.6675 56.8435 29.2975V15.9035C56.8435 15.5335 56.5105 15.2005 56.1405 15.2005H46.2615V10.6125C46.2615 8.05947 47.8155 6.98647 49.3325 6.98647C50.9605 6.98647 52.8475 7.98547 53.1805 8.17047C53.5875 8.39247 53.9205 8.42947 54.1425 7.98547L55.0675 6.32047C55.2525 6.02447 55.1785 5.58047 54.8825 5.39547C54.1055 4.91447 51.8115 3.73047 49.3325 3.73047C45.6695 3.73047 42.6725 6.20947 42.6725 10.6125V15.2005H40.9335C40.5265 15.2005 40.2305 15.4965 40.2305 15.9035V17.5685C40.2305 17.9385 40.5265 18.2715 40.9335 18.2715H42.6725V29.2975Z" fill="white"/>
<path d="M61.6514 29.2975C61.6514 29.6675 61.9844 30.0005 62.3544 30.0005H64.1304C64.7224 30.0005 65.1294 29.9265 65.1294 29.2975V19.8995C65.2774 19.6405 66.3134 18.0865 68.4594 18.0865C68.9404 18.0865 69.4954 18.2345 69.7174 18.3455C70.0504 18.4935 70.4204 18.4195 70.6054 18.0125L71.4934 16.1995C71.9004 15.2005 70.1984 14.8305 68.7924 14.8305C66.0914 14.8305 64.7224 16.6065 64.4634 16.9765L64.0564 15.7185C63.9824 15.4225 63.6864 15.2005 63.4274 15.2005H62.3544C61.9844 15.2005 61.6514 15.5335 61.6514 15.9035V29.2975Z" fill="white"/>
<path d="M72.8997 22.6005C72.8997 26.8555 75.8597 30.3705 80.3367 30.3705C82.8157 30.3705 84.7397 29.4455 85.8127 28.5205C86.2567 28.1505 86.1457 27.8545 85.8867 27.5585L84.8507 26.1525C84.5547 25.7825 84.2957 25.9305 83.8517 26.1895C83.1117 26.6705 81.8907 27.2625 80.5587 27.2625C78.1537 27.2625 76.4147 25.3015 76.3037 23.3035H86.3677C86.7007 23.3035 86.9967 23.0445 87.0337 22.6745C87.0707 22.4155 87.1077 21.9345 87.1077 21.6755C87.1077 17.7165 84.1477 14.8305 80.2997 14.8305C75.8597 14.8305 72.8997 18.4195 72.8997 22.6005ZM76.4887 20.9725C76.7107 19.1225 78.2647 17.6795 80.2627 17.6795C82.0757 17.6795 83.5557 19.1965 83.6667 20.9725H76.4887Z" fill="white"/>
<path d="M90.6661 29.2975C90.6661 29.6675 90.9991 30.0005 91.3691 30.0005H93.4781C93.8481 30.0005 94.1811 29.6675 94.1811 29.2975V4.80347C94.1811 4.43347 93.8481 4.10047 93.4781 4.10047H91.3691C90.9991 4.10047 90.6661 4.43347 90.6661 4.80347V29.2975Z" fill="white"/>
<path d="M100.679 9.16947C101.9 9.16947 102.862 8.20747 102.862 7.02347C102.862 5.80247 101.9 4.84047 100.679 4.84047C99.4946 4.84047 98.5696 5.80247 98.5696 7.02347C98.5696 8.20747 99.4946 9.16947 100.679 9.16947ZM98.9766 29.2975C98.9766 29.6675 99.3096 30.0005 99.6796 30.0005H101.789C102.159 30.0005 102.492 29.6675 102.492 29.2975V15.9035C102.492 15.5335 102.159 15.2005 101.789 15.2005H99.6796C99.3096 15.2005 98.9766 15.5335 98.9766 15.9035V29.2975Z" fill="white"/>
</svg>
