<svg width="158" height="37" viewBox="0 0 158 37" fill="none" xmlns="http://www.w3.org/2000/svg">
<path d="M35.0521 33.416C34.2854 33.416 33.7641 33.048 33.4881 32.312C33.2427 31.576 33.1201 30.84 33.1201 30.104C33.1201 27.4667 34.5307 23.6793 37.3521 18.742C39.1614 15.6447 41.9521 11.474 45.7241 6.23C41.6454 6.598 36.3707 9.818 29.9001 15.89C24.7481 20.766 21.0834 24.952 18.9061 28.448C18.1701 29.5827 17.8021 30.3953 17.8021 30.886C17.8021 31.1007 17.8634 31.2387 17.9861 31.3C18.1394 31.3613 18.2161 31.392 18.2161 31.392C18.2161 31.4533 17.9247 31.6833 17.3421 32.082C16.9127 32.3273 16.3761 32.45 15.7321 32.45C14.4441 32.45 13.8921 32.1587 14.0761 31.576C14.5054 30.2267 15.9314 27.7427 18.3541 24.124C21.5127 19.432 23.5674 16.2273 24.5181 14.51C26.6034 10.7687 27.6461 7.80933 27.6461 5.632C27.6461 4.09867 27.2627 3.04067 26.4961 2.458C25.7601 1.87533 24.7174 1.584 23.3681 1.584C19.7187 1.584 15.8394 3.25533 11.7301 6.598C10.0434 7.978 8.4794 9.51133 7.03806 11.198C5.59673 12.854 4.4314 14.5713 3.54206 16.35C2.65273 18.1287 2.20806 19.8767 2.20806 21.594C2.20806 24.538 3.57273 26.0407 6.30206 26.102C10.1047 26.194 12.9721 24.9213 14.9041 22.284C15.6401 21.272 16.0081 20.3213 16.0081 19.432C16.0081 18.9107 15.8394 18.558 15.5021 18.374C15.4714 18.3433 15.4561 18.2973 15.4561 18.236C15.4561 18.1133 15.5481 18.052 15.7321 18.052C16.5294 18.052 16.9281 18.5733 16.9281 19.616C16.9281 20.26 16.6674 21.0727 16.1461 22.054C15.2874 23.526 14.0147 24.6913 12.3281 25.55C10.6414 26.4087 8.8934 26.838 7.08406 26.838C5.09073 26.838 3.49606 26.24 2.30006 25.044C1.10406 23.848 0.506063 22.238 0.506063 20.214C0.506063 15.43 3.7874 10.4007 10.3501 5.126C11.4541 4.23666 12.8034 3.43933 14.3981 2.734C15.9927 2.02866 17.6334 1.47666 19.3201 1.078C21.0374 0.679332 22.6167 0.48 24.0581 0.48C25.8674 0.48 27.2934 0.832666 28.3361 1.538C29.4094 2.21267 29.9461 3.39333 29.9461 5.08C29.9461 7.25733 29.0567 10.14 27.2781 13.728C26.8794 14.5253 26.3734 15.4453 25.7601 16.488C25.1467 17.5307 24.4261 18.6807 23.5981 19.938C24.5487 18.742 26.0974 17.224 28.2441 15.384C32.1081 12.1333 35.6807 9.46533 38.9621 7.38C42.2434 5.264 45.2334 3.71533 47.9321 2.734C48.2081 2.61133 48.5147 2.55 48.8521 2.55C50.0174 2.55 50.7534 3.20933 51.0601 4.528C51.2134 5.04933 50.4774 6.138 48.8521 7.794C45.0187 11.7193 41.7067 16.1047 38.9161 20.95C36.3707 25.4273 35.0981 28.678 35.0981 30.702C35.0981 31.5607 35.3894 31.99 35.9721 31.99C36.3401 31.99 37.2601 31.668 38.7321 31.024C40.0201 30.4413 40.8634 30.104 41.2621 30.012C41.4154 30.0733 41.4921 30.15 41.4921 30.242C41.4921 30.702 40.6794 31.346 39.0541 32.174C37.4594 33.002 36.1254 33.416 35.0521 33.416ZM46.0371 29.23C45.3011 29.23 44.5651 28.9693 43.8291 28.448C43.0931 27.9267 42.6791 27.3133 42.5871 26.608C42.2804 24.2467 43.7677 21.4407 47.0491 18.19C50.2997 14.9393 53.2284 13.314 55.8351 13.314C56.5404 13.314 57.0924 13.4827 57.4911 13.82C57.7057 14.0347 57.8591 14.326 57.9511 14.694C58.0737 15.062 58.1657 15.246 58.2271 15.246C58.3497 15.246 58.4571 15.2307 58.5491 15.2C58.6411 15.1387 58.7484 15.108 58.8711 15.108C59.2391 15.108 59.5611 15.246 59.8371 15.522C60.1131 15.798 60.2664 16.0433 60.2971 16.258C60.3277 16.3193 59.3464 17.8373 57.3531 20.812C55.3597 23.7253 54.4551 25.7033 54.6391 26.746C54.7924 27.4513 55.1297 27.804 55.6511 27.804C57.2457 27.804 60.1591 25.1667 64.3911 19.892C64.4831 19.7693 64.5751 19.708 64.6671 19.708C64.8204 19.708 64.8971 19.8153 64.8971 20.03C64.8971 20.2753 64.7591 20.582 64.4831 20.95C60.5884 26.194 57.5984 28.816 55.5131 28.816C55.2371 28.816 54.9764 28.77 54.7311 28.678C53.3817 28.1567 52.7071 27.1447 52.7071 25.642C52.7071 25.1207 52.7684 24.5993 52.8911 24.078L50.0391 26.838C49.1804 27.6967 48.3984 28.31 47.6931 28.678C47.0184 29.046 46.4664 29.23 46.0371 29.23ZM45.6231 28.218C47.4017 28.218 49.8244 26.2707 52.8911 22.376L57.7671 15.66C57.5217 15.2307 57.1231 15.016 56.5711 15.016C54.7004 15.016 52.1704 16.5187 48.9811 19.524C45.6691 22.5907 44.1817 25.1207 44.5191 27.114C44.6724 27.85 45.0404 28.218 45.6231 28.218ZM64.7641 29.276C63.7828 29.276 63.0008 29.046 62.4181 28.586C61.8661 28.0953 61.5901 27.2367 61.5901 26.01C61.5901 25.3047 61.8048 24.4153 62.2341 23.342C62.6634 22.238 63.2001 21.0573 63.8441 19.8C64.4881 18.5427 65.1321 17.3007 65.7761 16.074C65.3774 16.166 65.0248 16.212 64.7181 16.212C63.7981 16.212 63.3381 15.8593 63.3381 15.154C63.3381 14.8167 63.4608 14.556 63.7061 14.372C63.9821 14.188 64.2274 14.0807 64.4421 14.05C64.4421 14.05 64.4728 14.05 64.5341 14.05C64.6261 14.05 64.7334 14.0347 64.8561 14.004H67.5241C68.0761 13.2987 68.6434 12.5473 69.2261 11.75C70.0541 10.7073 70.7134 10.094 71.2041 9.91H71.3421C71.5568 9.91 71.8634 10.0173 72.2621 10.232C72.7528 10.508 72.9981 10.784 72.9981 11.06C72.9981 11.4587 72.2621 12.486 70.7901 14.142C71.0661 14.1727 71.4648 14.188 71.9861 14.188C72.5074 14.188 73.1514 14.188 73.9181 14.188C74.2861 14.188 74.8074 14.188 75.4821 14.188C76.1874 14.188 76.9081 14.188 77.6441 14.188C78.4108 14.1573 79.0701 14.142 79.6221 14.142C80.1741 14.1113 80.4808 14.096 80.5421 14.096C80.6341 14.1267 80.6801 14.1727 80.6801 14.234C80.6801 14.51 78.8708 14.878 75.2521 15.338C73.1974 15.614 71.6181 15.8287 70.5141 15.982C69.4408 16.1353 68.8581 16.2273 68.7661 16.258C68.3368 16.626 67.8154 17.2547 67.2021 18.144C66.5888 19.0333 65.9754 20.03 65.3621 21.134C64.7488 22.238 64.2274 23.296 63.7981 24.308C63.3994 25.2893 63.2001 26.056 63.2001 26.608C63.2001 27.0987 63.3841 27.5127 63.7521 27.85C64.1201 28.1567 64.7181 28.31 65.5461 28.31C66.0981 28.31 66.7574 28.1873 67.5241 27.942C68.2908 27.6967 69.0114 27.4207 69.6861 27.114C70.3914 26.7767 70.8974 26.516 71.2041 26.332C72.0014 25.8413 72.8754 25.1973 73.8261 24.4C74.8074 23.572 75.7734 22.6367 76.7241 21.594C77.1534 21.1647 77.4448 20.95 77.5981 20.95C77.6901 20.95 77.7361 21.0113 77.7361 21.134C77.7361 21.3793 77.5061 21.778 77.0461 22.33C76.3101 23.2193 75.4821 24.078 74.5621 24.906C73.6728 25.7033 72.6761 26.4393 71.5721 27.114C70.3148 27.8807 69.1034 28.4327 67.9381 28.77C66.8034 29.1073 65.7454 29.276 64.7641 29.276ZM84.9524 29.23C83.6337 29.23 82.729 28.8927 82.2384 28.218C81.7477 27.5127 81.5024 26.5773 81.5024 25.412C81.5024 24.124 81.901 22.5907 82.6984 20.812C83.005 20.1067 83.327 19.478 83.6644 18.926C84.0017 18.3433 84.3544 17.8067 84.7224 17.316C84.5997 17.3467 84.4924 17.362 84.4004 17.362C84.3084 17.362 84.2164 17.362 84.1244 17.362C83.3884 17.362 82.775 16.8407 82.2844 15.798L78.8804 20.214C77.071 22.5753 75.967 23.756 75.5684 23.756C75.415 23.756 75.3384 23.6947 75.3384 23.572C75.3384 23.4187 75.415 23.2193 75.5684 22.974C75.6604 22.79 75.8444 22.5447 76.1204 22.238C77.2857 20.8887 78.359 19.5547 79.3404 18.236C80.3217 16.9173 81.1344 15.6293 81.7784 14.372C82.4837 11.704 83.373 10.37 84.4464 10.37C85.1517 10.37 85.5044 10.692 85.5044 11.336C85.5044 11.9187 85.121 12.6853 84.3544 13.636C83.6184 14.5867 83.2504 15.0773 83.2504 15.108C83.2504 15.752 83.7257 16.074 84.6764 16.074C85.2284 16.074 85.8417 15.8747 86.5164 15.476L87.7124 14.74C87.7737 14.7093 87.8657 14.694 87.9884 14.694C88.3564 14.694 88.6784 14.8473 88.9544 15.154C89.2304 15.4607 89.3224 15.7367 89.2304 15.982L86.0564 19.984C84.0937 22.4987 83.1124 24.5227 83.1124 26.056C83.1124 27.436 83.787 28.126 85.1364 28.126C86.0564 28.126 87.0377 27.85 88.0804 27.298C89.1537 26.746 90.181 26.0713 91.1624 25.274C92.1744 24.446 93.0177 23.6487 93.6924 22.882L94.7964 21.594C94.8577 21.5327 94.9344 21.456 95.0264 21.364C95.1184 21.272 95.195 21.226 95.2564 21.226C95.471 21.226 95.5784 21.3333 95.5784 21.548C95.5784 21.6093 95.5477 21.7167 95.4864 21.87C95.425 22.0233 95.3177 22.192 95.1644 22.376L93.6924 24.032C92.987 24.8293 92.113 25.642 91.0704 26.47C90.0584 27.2673 89.0004 27.9267 87.8964 28.448C86.823 28.9693 85.8417 29.23 84.9524 29.23ZM95.6499 29.092C94.8832 29.092 94.2852 28.7393 93.8559 28.034C93.4265 27.298 93.2119 26.5927 93.2119 25.918C93.2119 24.078 94.5459 21.502 97.2139 18.19C99.9125 14.8473 102.09 13.176 103.746 13.176C105.31 13.176 106.092 14.004 106.092 15.66C106.092 15.9053 106.061 16.166 106 16.442C105.969 16.718 105.923 17.0093 105.862 17.316C105.923 17.408 106.077 17.454 106.322 17.454C107.15 17.454 108.131 17.1627 109.266 16.58C109.235 17.1013 108.024 17.8527 105.632 18.834C105.969 19.846 104.957 21.778 102.596 24.63C100.173 27.6047 98.1032 29.092 96.3859 29.092H95.6499ZM96.4779 27.712C97.7965 27.712 99.4832 26.5007 101.538 24.078C103.531 21.7167 104.528 20.0147 104.528 18.972C104.037 18.696 103.424 17.9907 102.688 16.856C101.645 16.856 100.143 18.1133 98.1799 20.628C96.2479 23.0813 95.3125 24.9673 95.3739 26.286C95.4045 27.2367 95.7725 27.712 96.4779 27.712ZM117.465 29.092C116.729 29.092 116.361 28.678 116.361 27.85C116.699 26.1327 117.389 24.2007 118.431 22.054C118.922 21.0113 119.413 19.984 119.903 18.972C120.425 17.96 120.931 16.9327 121.421 15.89C120.287 16.6567 119.152 17.5153 118.017 18.466C116.883 19.386 115.779 20.4287 114.705 21.594C113.448 22.9433 111.991 24.676 110.335 26.792C109.139 28.2947 108.449 29.046 108.265 29.046C107.836 29.046 107.483 28.8467 107.207 28.448C106.931 28.0493 106.793 27.712 106.793 27.436C106.793 27.0373 107.146 26.01 107.851 24.354C108.066 23.8327 108.281 23.3267 108.495 22.836C108.741 22.3147 108.971 21.8087 109.185 21.318L106.425 24.216C106.364 24.2773 106.18 24.4613 105.873 24.768C105.567 25.0747 105.321 25.228 105.137 25.228C104.984 25.228 104.907 25.1207 104.907 24.906C104.907 24.8447 104.938 24.768 104.999 24.676C105.03 24.5533 105.122 24.4153 105.275 24.262C105.735 23.802 106.211 23.3113 106.701 22.79C107.192 22.2687 107.698 21.6707 108.219 20.996C108.618 20.4747 109.185 19.708 109.921 18.696C110.688 17.6533 111.623 16.35 112.727 14.786C113.065 14.326 113.54 14.096 114.153 14.096C114.767 14.096 115.073 14.3873 115.073 14.97C115.073 15.1847 114.291 16.6107 112.727 19.248C111.93 20.6587 111.286 21.8087 110.795 22.698C110.335 23.5873 110.044 24.2467 109.921 24.676C110.596 23.94 111.393 23.112 112.313 22.192C113.264 21.272 114.353 20.2447 115.579 19.11C119.351 15.614 121.835 13.866 123.031 13.866C123.369 13.866 123.691 13.9733 123.997 14.188C124.335 14.4027 124.503 14.6787 124.503 15.016C124.503 15.1693 123.905 16.2887 122.709 18.374C121.544 20.49 120.9 21.7473 120.777 22.146C124.181 19.294 125.883 17.8527 125.883 17.822C128.766 15.5833 130.836 14.464 132.093 14.464C132.461 14.464 132.799 14.5867 133.105 14.832C133.443 15.0467 133.611 15.3073 133.611 15.614C133.611 15.6753 132.63 16.9633 130.667 19.478C128.643 22.0233 127.509 24.1087 127.263 25.734C127.141 26.838 127.708 27.39 128.965 27.39C129.732 27.39 130.805 26.8993 132.185 25.918C133.565 24.9367 135.007 23.5873 136.509 21.87C136.693 21.6553 136.893 21.456 137.107 21.272C137.322 21.0573 137.506 20.95 137.659 20.95C137.843 20.95 137.935 21.0267 137.935 21.18C137.935 21.3947 137.797 21.64 137.521 21.916C136.724 22.8667 135.773 23.848 134.669 24.86C133.596 25.872 132.523 26.7307 131.449 27.436C130.376 28.1107 129.425 28.448 128.597 28.448C126.512 28.448 125.469 27.482 125.469 25.55C125.469 24.8753 125.653 24.0933 126.021 23.204C126.389 22.284 126.757 21.456 127.125 20.72C128.015 19.0027 128.981 17.4847 130.023 16.166C129.042 16.6567 128.015 17.3007 126.941 18.098C125.899 18.8953 124.81 19.8307 123.675 20.904C121.038 23.48 119.229 26.0867 118.247 28.724C118.094 28.9693 117.833 29.092 117.465 29.092ZM138.711 29.23C137.975 29.23 137.239 28.9693 136.503 28.448C135.767 27.9267 135.353 27.3133 135.261 26.608C134.954 24.2467 136.442 21.4407 139.723 18.19C142.974 14.9393 145.902 13.314 148.509 13.314C149.214 13.314 149.766 13.4827 150.165 13.82C150.38 14.0347 150.533 14.326 150.625 14.694C150.748 15.062 150.84 15.246 150.901 15.246C151.024 15.246 151.131 15.2307 151.223 15.2C151.315 15.1387 151.422 15.108 151.545 15.108C151.913 15.108 152.235 15.246 152.511 15.522C152.787 15.798 152.94 16.0433 152.971 16.258C153.002 16.3193 152.02 17.8373 150.027 20.812C148.034 23.7253 147.129 25.7033 147.313 26.746C147.466 27.4513 147.804 27.804 148.325 27.804C149.92 27.804 152.833 25.1667 157.065 19.892C157.157 19.7693 157.249 19.708 157.341 19.708C157.494 19.708 157.571 19.8153 157.571 20.03C157.571 20.2753 157.433 20.582 157.157 20.95C153.262 26.194 150.272 28.816 148.187 28.816C147.911 28.816 147.65 28.77 147.405 28.678C146.056 28.1567 145.381 27.1447 145.381 25.642C145.381 25.1207 145.442 24.5993 145.565 24.078L142.713 26.838C141.854 27.6967 141.072 28.31 140.367 28.678C139.692 29.046 139.14 29.23 138.711 29.23ZM138.297 28.218C140.076 28.218 142.498 26.2707 145.565 22.376L150.441 15.66C150.196 15.2307 149.797 15.016 149.245 15.016C147.374 15.016 144.844 16.5187 141.655 19.524C138.343 22.5907 136.856 25.1207 137.193 27.114C137.346 27.85 137.714 28.218 138.297 28.218Z" fill="white"/>
</svg>
