<svg width="674" height="570" viewBox="0 0 674 570" fill="none" xmlns="http://www.w3.org/2000/svg">
<g filter="url(#filter0_d_315_14849)">
<rect x="60" y="56" width="554" height="450" rx="10" fill="white"/>
<mask id="mask0_315_14849" style="mask-type:alpha" maskUnits="userSpaceOnUse" x="60" y="56" width="554" height="450">
<rect x="60" y="56" width="554" height="450" rx="10" fill="white"/>
</mask>
<g mask="url(#mask0_315_14849)">
<rect x="235" y="143" width="352" height="93" rx="10" fill="#12141D"/>
<rect opacity="0.2" x="252" y="163" width="50.3999" height="5.2" rx="2.6" fill="#DDE2ED"/>
<rect opacity="0.2" x="252" y="184" width="312" height="5" rx="2.5" fill="#DDE2ED"/>
<rect opacity="0.2" x="252" y="196" width="288" height="5" rx="2.5" fill="#DDE2ED"/>
<rect opacity="0.2" x="252" y="208" width="254" height="5" rx="2.5" fill="#DDE2ED"/>
<rect opacity="0.03" x="235" y="251" width="352" height="93" rx="10" fill="#2B59FF"/>
<rect x="252" y="271" width="50.3999" height="5.2" rx="2.6" fill="#DDE2ED"/>
<rect x="252" y="292" width="312" height="5" rx="2.5" fill="#DDE2ED"/>
<rect x="252" y="304" width="288" height="5" rx="2.5" fill="#DDE2ED"/>
<rect x="252" y="316" width="254" height="5" rx="2.5" fill="#DDE2ED"/>
<rect opacity="0.03" x="235" y="359" width="352" height="93" rx="10" fill="#2B59FF"/>
<rect x="252" y="379" width="50.3999" height="5.2" rx="2.6" fill="#DDE2ED"/>
<rect x="252" y="400" width="312" height="5" rx="2.5" fill="#DDE2ED"/>
<rect x="252" y="412" width="288" height="5" rx="2.5" fill="#DDE2ED"/>
<rect x="252" y="424" width="254" height="5" rx="2.5" fill="#DDE2ED"/>
<rect opacity="0.03" x="235" y="467" width="352" height="93" rx="10" fill="#2B59FF"/>
<rect x="252" y="487" width="50.3999" height="5.2" rx="2.6" fill="#DDE2ED"/>
<path d="M236.491 119V108.818H237.724V113.352H243.153V108.818H244.386V119H243.153V114.446H237.724V119H236.491ZM249.841 119.159C249.105 119.159 248.47 118.997 247.937 118.672C247.406 118.344 246.997 117.886 246.709 117.3C246.424 116.71 246.281 116.024 246.281 115.241C246.281 114.459 246.424 113.77 246.709 113.173C246.997 112.573 247.398 112.106 247.912 111.771C248.429 111.433 249.032 111.264 249.721 111.264C250.119 111.264 250.512 111.33 250.9 111.463C251.287 111.596 251.64 111.811 251.959 112.109C252.277 112.404 252.53 112.795 252.719 113.283C252.908 113.77 253.003 114.37 253.003 115.082V115.58H247.116V114.565H251.809C251.809 114.134 251.723 113.75 251.551 113.412C251.382 113.074 251.14 112.807 250.825 112.612C250.513 112.416 250.146 112.318 249.721 112.318C249.254 112.318 248.85 112.434 248.508 112.666C248.17 112.895 247.91 113.193 247.728 113.561C247.545 113.929 247.454 114.323 247.454 114.744V115.42C247.454 115.997 247.554 116.486 247.753 116.887C247.955 117.285 248.235 117.588 248.593 117.797C248.951 118.002 249.367 118.105 249.841 118.105C250.149 118.105 250.427 118.062 250.676 117.976C250.928 117.886 251.145 117.754 251.327 117.578C251.509 117.399 251.65 117.177 251.75 116.912L252.883 117.23C252.764 117.615 252.563 117.953 252.282 118.244C252 118.533 251.652 118.758 251.238 118.92C250.823 119.08 250.358 119.159 249.841 119.159ZM254.731 119V111.364H255.865V112.517H255.944C256.084 112.139 256.336 111.833 256.7 111.597C257.065 111.362 257.476 111.244 257.933 111.244C258.019 111.244 258.127 111.246 258.256 111.249C258.386 111.253 258.483 111.258 258.55 111.264V112.457C258.51 112.447 258.419 112.433 258.276 112.413C258.137 112.389 257.989 112.378 257.834 112.378C257.462 112.378 257.131 112.456 256.839 112.612C256.551 112.764 256.322 112.976 256.153 113.248C255.988 113.516 255.905 113.823 255.905 114.168V119H254.731ZM262.854 119.159C262.118 119.159 261.483 118.997 260.95 118.672C260.419 118.344 260.01 117.886 259.722 117.3C259.437 116.71 259.294 116.024 259.294 115.241C259.294 114.459 259.437 113.77 259.722 113.173C260.01 112.573 260.411 112.106 260.925 111.771C261.442 111.433 262.045 111.264 262.734 111.264C263.132 111.264 263.525 111.33 263.913 111.463C264.3 111.596 264.653 111.811 264.972 112.109C265.29 112.404 265.543 112.795 265.732 113.283C265.921 113.77 266.016 114.37 266.016 115.082V115.58H260.129V114.565H264.822C264.822 114.134 264.736 113.75 264.564 113.412C264.395 113.074 264.153 112.807 263.838 112.612C263.526 112.416 263.159 112.318 262.734 112.318C262.267 112.318 261.863 112.434 261.521 112.666C261.183 112.895 260.923 113.193 260.741 113.561C260.558 113.929 260.467 114.323 260.467 114.744V115.42C260.467 115.997 260.567 116.486 260.766 116.887C260.968 117.285 261.248 117.588 261.606 117.797C261.964 118.002 262.38 118.105 262.854 118.105C263.162 118.105 263.44 118.062 263.689 117.976C263.941 117.886 264.158 117.754 264.34 117.578C264.522 117.399 264.663 117.177 264.763 116.912L265.896 117.23C265.777 117.615 265.576 117.953 265.295 118.244C265.013 118.533 264.665 118.758 264.251 118.92C263.836 119.08 263.371 119.159 262.854 119.159ZM268.759 108.818V112.318H267.665V108.818H268.759ZM276.201 113.074L275.147 113.372C275.081 113.196 274.983 113.026 274.854 112.86C274.728 112.691 274.555 112.552 274.337 112.442C274.118 112.333 273.838 112.278 273.496 112.278C273.029 112.278 272.64 112.386 272.328 112.602C272.02 112.814 271.866 113.084 271.866 113.412C271.866 113.704 271.972 113.934 272.184 114.103C272.396 114.272 272.728 114.413 273.178 114.526L274.312 114.804C274.995 114.97 275.503 115.223 275.838 115.565C276.173 115.903 276.34 116.339 276.34 116.872C276.34 117.31 276.214 117.701 275.962 118.045C275.714 118.39 275.366 118.662 274.918 118.861C274.471 119.06 273.951 119.159 273.357 119.159C272.578 119.159 271.934 118.99 271.423 118.652C270.913 118.314 270.59 117.82 270.454 117.17L271.567 116.892C271.674 117.303 271.874 117.611 272.169 117.817C272.467 118.022 272.857 118.125 273.337 118.125C273.884 118.125 274.318 118.009 274.64 117.777C274.965 117.542 275.127 117.26 275.127 116.932C275.127 116.667 275.034 116.445 274.849 116.266C274.663 116.083 274.378 115.947 273.994 115.858L272.721 115.56C272.022 115.394 271.508 115.137 271.18 114.789C270.855 114.438 270.692 113.999 270.692 113.472C270.692 113.041 270.813 112.66 271.055 112.328C271.301 111.997 271.634 111.737 272.055 111.548C272.479 111.359 272.96 111.264 273.496 111.264C274.252 111.264 274.845 111.43 275.276 111.761C275.71 112.093 276.019 112.53 276.201 113.074ZM283.662 119L281.335 111.364H282.568L284.219 117.21H284.298L285.929 111.364H287.182L288.793 117.19H288.872L290.523 111.364H291.756L289.429 119H288.276L286.605 113.134H286.486L284.815 119H283.662ZM294.424 114.406V119H293.251V108.818H294.424V112.557H294.524C294.703 112.162 294.971 111.849 295.329 111.617C295.69 111.382 296.171 111.264 296.771 111.264C297.291 111.264 297.747 111.369 298.138 111.577C298.529 111.783 298.832 112.099 299.048 112.527C299.266 112.951 299.376 113.491 299.376 114.148V119H298.203V114.227C298.203 113.621 298.045 113.152 297.73 112.82C297.419 112.486 296.986 112.318 296.433 112.318C296.048 112.318 295.704 112.399 295.399 112.562C295.097 112.724 294.858 112.961 294.683 113.273C294.51 113.584 294.424 113.962 294.424 114.406ZM303.714 119.179C303.23 119.179 302.79 119.088 302.396 118.906C302.002 118.72 301.688 118.453 301.456 118.105C301.224 117.754 301.108 117.33 301.108 116.832C301.108 116.395 301.195 116.04 301.367 115.768C301.539 115.493 301.77 115.278 302.058 115.122C302.346 114.966 302.665 114.85 303.013 114.774C303.364 114.695 303.717 114.632 304.071 114.585C304.535 114.526 304.912 114.481 305.2 114.451C305.492 114.418 305.704 114.363 305.836 114.287C305.972 114.211 306.04 114.078 306.04 113.889V113.849C306.04 113.359 305.906 112.978 305.638 112.706C305.372 112.434 304.97 112.298 304.429 112.298C303.869 112.298 303.43 112.421 303.112 112.666C302.794 112.911 302.57 113.173 302.441 113.452L301.327 113.054C301.526 112.59 301.791 112.229 302.123 111.97C302.457 111.708 302.822 111.526 303.216 111.423C303.614 111.317 304.005 111.264 304.39 111.264C304.635 111.264 304.917 111.294 305.235 111.354C305.556 111.41 305.866 111.528 306.165 111.707C306.466 111.886 306.716 112.156 306.915 112.517C307.114 112.878 307.214 113.362 307.214 113.969V119H306.04V117.966H305.981C305.901 118.132 305.768 118.309 305.583 118.498C305.397 118.687 305.15 118.848 304.842 118.98C304.534 119.113 304.158 119.179 303.714 119.179ZM303.892 118.125C304.357 118.125 304.748 118.034 305.066 117.852C305.387 117.669 305.629 117.434 305.792 117.146C305.957 116.857 306.04 116.554 306.04 116.236V115.162C305.99 115.222 305.881 115.276 305.712 115.326C305.546 115.372 305.354 115.414 305.135 115.45C304.92 115.483 304.709 115.513 304.504 115.54C304.302 115.563 304.138 115.583 304.012 115.599C303.707 115.639 303.422 115.704 303.157 115.793C302.895 115.879 302.683 116.01 302.52 116.186C302.361 116.358 302.282 116.594 302.282 116.892C302.282 117.3 302.432 117.608 302.734 117.817C303.039 118.022 303.425 118.125 303.892 118.125ZM312.62 111.364V112.358H308.663V111.364H312.62ZM309.816 109.534H310.989V116.812C310.989 117.144 311.037 117.393 311.134 117.558C311.233 117.721 311.359 117.83 311.511 117.886C311.667 117.939 311.831 117.966 312.004 117.966C312.133 117.966 312.239 117.959 312.322 117.946C312.405 117.929 312.471 117.916 312.521 117.906L312.759 118.96C312.68 118.99 312.569 119.02 312.426 119.05C312.284 119.083 312.103 119.099 311.884 119.099C311.553 119.099 311.228 119.028 310.91 118.886C310.595 118.743 310.333 118.526 310.124 118.234C309.919 117.943 309.816 117.575 309.816 117.131V109.534ZM321.313 119.159C320.623 119.159 320.018 118.995 319.498 118.667C318.981 118.339 318.577 117.88 318.285 117.29C317.997 116.7 317.853 116.01 317.853 115.222C317.853 114.426 317.997 113.732 318.285 113.138C318.577 112.545 318.981 112.085 319.498 111.756C320.018 111.428 320.623 111.264 321.313 111.264C322.002 111.264 322.605 111.428 323.122 111.756C323.643 112.085 324.047 112.545 324.335 113.138C324.627 113.732 324.773 114.426 324.773 115.222C324.773 116.01 324.627 116.7 324.335 117.29C324.047 117.88 323.643 118.339 323.122 118.667C322.605 118.995 322.002 119.159 321.313 119.159ZM321.313 118.105C321.836 118.105 322.267 117.971 322.605 117.702C322.943 117.434 323.194 117.081 323.356 116.643C323.518 116.206 323.6 115.732 323.6 115.222C323.6 114.711 323.518 114.236 323.356 113.795C323.194 113.354 322.943 112.998 322.605 112.726C322.267 112.454 321.836 112.318 321.313 112.318C320.789 112.318 320.358 112.454 320.02 112.726C319.682 112.998 319.432 113.354 319.269 113.795C319.107 114.236 319.026 114.711 319.026 115.222C319.026 115.732 319.107 116.206 319.269 116.643C319.432 117.081 319.682 117.434 320.02 117.702C320.358 117.971 320.789 118.105 321.313 118.105ZM331.32 115.878V111.364H332.494V119H331.32V117.707H331.241C331.062 118.095 330.784 118.425 330.406 118.697C330.028 118.965 329.551 119.099 328.974 119.099C328.497 119.099 328.072 118.995 327.701 118.786C327.33 118.574 327.038 118.256 326.826 117.832C326.614 117.404 326.508 116.866 326.508 116.216V111.364H327.681V116.136C327.681 116.693 327.837 117.137 328.149 117.469C328.463 117.8 328.865 117.966 329.352 117.966C329.643 117.966 329.94 117.891 330.242 117.742C330.547 117.593 330.802 117.364 331.007 117.056C331.216 116.748 331.32 116.355 331.32 115.878ZM334.587 119V111.364H335.72V112.517H335.8C335.939 112.139 336.191 111.833 336.555 111.597C336.92 111.362 337.331 111.244 337.788 111.244C337.875 111.244 337.982 111.246 338.112 111.249C338.241 111.253 338.339 111.258 338.405 111.264V112.457C338.365 112.447 338.274 112.433 338.131 112.413C337.992 112.389 337.845 112.378 337.689 112.378C337.318 112.378 336.986 112.456 336.695 112.612C336.406 112.764 336.178 112.976 336.009 113.248C335.843 113.516 335.76 113.823 335.76 114.168V119H334.587ZM344.198 119H342.905L346.644 108.818H347.917L351.655 119H350.363L347.32 110.429H347.241L344.198 119ZM344.675 115.023H349.885V116.116H344.675V115.023ZM354.418 108.818V119H353.185V108.818H354.418ZM363.659 119.159C362.943 119.159 362.327 118.99 361.81 118.652C361.293 118.314 360.895 117.848 360.616 117.255C360.338 116.662 360.199 115.984 360.199 115.222C360.199 114.446 360.341 113.762 360.626 113.168C360.915 112.572 361.316 112.106 361.829 111.771C362.347 111.433 362.95 111.264 363.639 111.264C364.176 111.264 364.66 111.364 365.091 111.562C365.522 111.761 365.875 112.04 366.15 112.398C366.425 112.756 366.596 113.173 366.662 113.651H365.489C365.399 113.303 365.2 112.994 364.892 112.726C364.587 112.454 364.176 112.318 363.659 112.318C363.202 112.318 362.801 112.437 362.456 112.676C362.115 112.911 361.848 113.245 361.655 113.675C361.467 114.103 361.372 114.605 361.372 115.182C361.372 115.772 361.465 116.286 361.65 116.723C361.839 117.161 362.105 117.5 362.446 117.742C362.791 117.984 363.195 118.105 363.659 118.105C363.964 118.105 364.241 118.052 364.489 117.946C364.738 117.84 364.948 117.688 365.121 117.489C365.293 117.29 365.416 117.051 365.489 116.773H366.662C366.596 117.223 366.431 117.629 366.17 117.991C365.911 118.349 365.568 118.634 365.141 118.846C364.716 119.055 364.222 119.159 363.659 119.159ZM370.568 119.179C370.084 119.179 369.645 119.088 369.251 118.906C368.856 118.72 368.543 118.453 368.311 118.105C368.079 117.754 367.963 117.33 367.963 116.832C367.963 116.395 368.049 116.04 368.222 115.768C368.394 115.493 368.624 115.278 368.913 115.122C369.201 114.966 369.519 114.85 369.867 114.774C370.219 114.695 370.572 114.632 370.926 114.585C371.39 114.526 371.766 114.481 372.055 114.451C372.346 114.418 372.559 114.363 372.691 114.287C372.827 114.211 372.895 114.078 372.895 113.889V113.849C372.895 113.359 372.761 112.978 372.492 112.706C372.227 112.434 371.824 112.298 371.284 112.298C370.724 112.298 370.285 112.421 369.967 112.666C369.648 112.911 369.425 113.173 369.295 113.452L368.182 113.054C368.381 112.59 368.646 112.229 368.977 111.97C369.312 111.708 369.677 111.526 370.071 111.423C370.469 111.317 370.86 111.264 371.244 111.264C371.49 111.264 371.771 111.294 372.09 111.354C372.411 111.41 372.721 111.528 373.019 111.707C373.321 111.886 373.571 112.156 373.77 112.517C373.969 112.878 374.068 113.362 374.068 113.969V119H372.895V117.966H372.835C372.756 118.132 372.623 118.309 372.438 118.498C372.252 118.687 372.005 118.848 371.697 118.98C371.389 119.113 371.012 119.179 370.568 119.179ZM370.747 118.125C371.211 118.125 371.602 118.034 371.92 117.852C372.242 117.669 372.484 117.434 372.646 117.146C372.812 116.857 372.895 116.554 372.895 116.236V115.162C372.845 115.222 372.736 115.276 372.567 115.326C372.401 115.372 372.209 115.414 371.99 115.45C371.775 115.483 371.564 115.513 371.359 115.54C371.157 115.563 370.992 115.583 370.867 115.599C370.562 115.639 370.277 115.704 370.011 115.793C369.75 115.879 369.537 116.01 369.375 116.186C369.216 116.358 369.136 116.594 369.136 116.892C369.136 117.3 369.287 117.608 369.589 117.817C369.894 118.022 370.28 118.125 370.747 118.125ZM376.154 119V111.364H377.287V112.557H377.387C377.546 112.149 377.803 111.833 378.157 111.607C378.512 111.379 378.938 111.264 379.435 111.264C379.939 111.264 380.358 111.379 380.693 111.607C381.031 111.833 381.294 112.149 381.483 112.557H381.563C381.758 112.162 382.052 111.849 382.443 111.617C382.834 111.382 383.303 111.264 383.85 111.264C384.533 111.264 385.091 111.478 385.525 111.906C385.959 112.33 386.176 112.991 386.176 113.889V119H385.003V113.889C385.003 113.326 384.849 112.923 384.541 112.681C384.233 112.439 383.87 112.318 383.452 112.318C382.915 112.318 382.499 112.481 382.204 112.805C381.909 113.127 381.762 113.535 381.762 114.028V119H380.569V113.77C380.569 113.336 380.428 112.986 380.146 112.721C379.864 112.452 379.501 112.318 379.057 112.318C378.752 112.318 378.467 112.399 378.202 112.562C377.94 112.724 377.728 112.95 377.566 113.238C377.407 113.523 377.327 113.853 377.327 114.227V119H376.154ZM391.467 119.159C390.732 119.159 390.097 118.997 389.563 118.672C389.033 118.344 388.624 117.886 388.335 117.3C388.05 116.71 387.908 116.024 387.908 115.241C387.908 114.459 388.05 113.77 388.335 113.173C388.624 112.573 389.025 112.106 389.538 111.771C390.055 111.433 390.659 111.264 391.348 111.264C391.746 111.264 392.139 111.33 392.526 111.463C392.914 111.596 393.267 111.811 393.585 112.109C393.903 112.404 394.157 112.795 394.346 113.283C394.535 113.77 394.629 114.37 394.629 115.082V115.58H388.743V114.565H393.436C393.436 114.134 393.35 113.75 393.178 113.412C393.009 113.074 392.767 112.807 392.452 112.612C392.14 112.416 391.772 112.318 391.348 112.318C390.881 112.318 390.476 112.434 390.135 112.666C389.797 112.895 389.537 113.193 389.354 113.561C389.172 113.929 389.081 114.323 389.081 114.744V115.42C389.081 115.997 389.18 116.486 389.379 116.887C389.582 117.285 389.862 117.588 390.22 117.797C390.577 118.002 390.993 118.105 391.467 118.105C391.776 118.105 392.054 118.062 392.303 117.976C392.555 117.886 392.772 117.754 392.954 117.578C393.136 117.399 393.277 117.177 393.376 116.912L394.51 117.23C394.391 117.615 394.19 117.953 393.908 118.244C393.627 118.533 393.279 118.758 392.864 118.92C392.45 119.08 391.984 119.159 391.467 119.159ZM405.052 115.878V111.364H406.225V119H405.052V117.707H404.973C404.794 118.095 404.515 118.425 404.137 118.697C403.76 118.965 403.282 119.099 402.706 119.099C402.228 119.099 401.804 118.995 401.433 118.786C401.062 118.574 400.77 118.256 400.558 117.832C400.346 117.404 400.24 116.866 400.24 116.216V111.364H401.413V116.136C401.413 116.693 401.569 117.137 401.88 117.469C402.195 117.8 402.596 117.966 403.083 117.966C403.375 117.966 403.672 117.891 403.973 117.742C404.278 117.593 404.533 117.364 404.739 117.056C404.948 116.748 405.052 116.355 405.052 115.878ZM408.318 121.864V111.364H409.452V112.577H409.591C409.677 112.444 409.797 112.275 409.949 112.07C410.105 111.861 410.327 111.675 410.615 111.513C410.907 111.347 411.301 111.264 411.799 111.264C412.442 111.264 413.008 111.425 413.499 111.746C413.989 112.068 414.372 112.524 414.647 113.114C414.922 113.704 415.06 114.4 415.06 115.202C415.06 116.01 414.922 116.711 414.647 117.305C414.372 117.895 413.991 118.352 413.504 118.677C413.017 118.998 412.455 119.159 411.818 119.159C411.328 119.159 410.935 119.078 410.64 118.915C410.345 118.75 410.118 118.562 409.959 118.354C409.8 118.142 409.677 117.966 409.591 117.827H409.492V121.864H408.318ZM409.472 115.182C409.472 115.759 409.556 116.267 409.725 116.708C409.894 117.146 410.141 117.489 410.466 117.737C410.791 117.982 411.189 118.105 411.659 118.105C412.15 118.105 412.559 117.976 412.887 117.717C413.219 117.455 413.467 117.104 413.633 116.663C413.802 116.219 413.887 115.725 413.887 115.182C413.887 114.645 413.804 114.161 413.638 113.73C413.476 113.296 413.229 112.953 412.897 112.701C412.569 112.446 412.156 112.318 411.659 112.318C411.182 112.318 410.781 112.439 410.456 112.681C410.131 112.92 409.886 113.254 409.72 113.685C409.555 114.113 409.472 114.612 409.472 115.182ZM422.405 119L420.079 111.364H421.312L422.962 117.21H423.042L424.672 111.364H425.925L427.536 117.19H427.615L429.266 111.364H430.499L428.172 119H427.019L425.348 113.134H425.229L423.559 119H422.405ZM431.994 119V111.364H433.167V119H431.994ZM432.591 110.091C432.362 110.091 432.165 110.013 431.999 109.857C431.837 109.701 431.756 109.514 431.756 109.295C431.756 109.077 431.837 108.889 431.999 108.734C432.165 108.578 432.362 108.5 432.591 108.5C432.819 108.5 433.015 108.578 433.177 108.734C433.343 108.889 433.426 109.077 433.426 109.295C433.426 109.514 433.343 109.701 433.177 109.857C433.015 110.013 432.819 110.091 432.591 110.091ZM438.581 111.364V112.358H434.624V111.364H438.581ZM435.777 109.534H436.951V116.812C436.951 117.144 436.999 117.393 437.095 117.558C437.194 117.721 437.32 117.83 437.473 117.886C437.629 117.939 437.793 117.966 437.965 117.966C438.094 117.966 438.2 117.959 438.283 117.946C438.366 117.929 438.432 117.916 438.482 117.906L438.721 118.96C438.641 118.99 438.53 119.02 438.388 119.05C438.245 119.083 438.064 119.099 437.846 119.099C437.514 119.099 437.189 119.028 436.871 118.886C436.556 118.743 436.295 118.526 436.086 118.234C435.88 117.943 435.777 117.575 435.777 117.131V109.534ZM441.628 114.406V119H440.454V108.818H441.628V112.557H441.727C441.906 112.162 442.175 111.849 442.533 111.617C442.894 111.382 443.374 111.264 443.974 111.264C444.495 111.264 444.95 111.369 445.341 111.577C445.733 111.783 446.036 112.099 446.251 112.527C446.47 112.951 446.579 113.491 446.579 114.148V119H445.406V114.227C445.406 113.621 445.249 113.152 444.934 112.82C444.622 112.486 444.19 112.318 443.636 112.318C443.252 112.318 442.907 112.399 442.602 112.562C442.301 112.724 442.062 112.961 441.886 113.273C441.714 113.584 441.628 113.962 441.628 114.406ZM449.525 119.08C449.28 119.08 449.069 118.992 448.894 118.816C448.718 118.64 448.63 118.43 448.63 118.185C448.63 117.939 448.718 117.729 448.894 117.553C449.069 117.378 449.28 117.29 449.525 117.29C449.77 117.29 449.981 117.378 450.156 117.553C450.332 117.729 450.42 117.939 450.42 118.185C450.42 118.347 450.378 118.496 450.296 118.632C450.216 118.768 450.108 118.877 449.972 118.96C449.84 119.04 449.691 119.08 449.525 119.08Z" fill="#818488"/>
<path d="M236.291 95V81.9091H241.2C242.206 81.9091 243.05 82.0838 243.732 82.4332C244.418 82.7827 244.935 83.2727 245.285 83.9034C245.638 84.5298 245.815 85.2607 245.815 86.0959C245.815 86.9354 245.636 87.6641 245.278 88.282C244.925 88.8956 244.403 89.3707 243.712 89.7074C243.022 90.0398 242.174 90.206 241.168 90.206H237.672V88.2372H240.849C241.437 88.2372 241.918 88.1562 242.293 87.9943C242.668 87.8281 242.945 87.5874 243.124 87.272C243.308 86.9524 243.399 86.5604 243.399 86.0959C243.399 85.6314 243.308 85.2351 243.124 84.907C242.941 84.5746 242.662 84.3232 242.287 84.1527C241.912 83.978 241.428 83.8906 240.836 83.8906H238.663V95H236.291ZM243.054 89.0682L246.295 95H243.648L240.465 89.0682H243.054ZM252.102 95.1918C251.118 95.1918 250.267 94.9872 249.551 94.5781C248.84 94.1648 248.292 93.581 247.909 92.8267C247.525 92.0682 247.333 91.1754 247.333 90.1484C247.333 89.1385 247.525 88.2521 247.909 87.4893C248.297 86.7223 248.838 86.1257 249.532 85.6996C250.227 85.2692 251.043 85.054 251.98 85.054C252.586 85.054 253.157 85.152 253.694 85.348C254.235 85.5398 254.712 85.8381 255.125 86.2429C255.543 86.6477 255.871 87.1634 256.11 87.7898C256.348 88.4119 256.468 89.1534 256.468 90.0142V90.7237H248.42V89.1641H254.25C254.245 88.7209 254.15 88.3267 253.962 87.9815C253.775 87.6321 253.512 87.3572 253.176 87.157C252.843 86.9567 252.456 86.8565 252.012 86.8565C251.539 86.8565 251.124 86.9716 250.766 87.2017C250.408 87.4276 250.129 87.7259 249.929 88.0966C249.733 88.4631 249.632 88.8658 249.628 89.3047V90.6662C249.628 91.2372 249.733 91.7273 249.941 92.1364C250.15 92.5412 250.442 92.8523 250.817 93.0696C251.192 93.2827 251.631 93.3892 252.134 93.3892C252.471 93.3892 252.775 93.3423 253.048 93.2486C253.321 93.1506 253.557 93.0078 253.757 92.8203C253.958 92.6328 254.109 92.4006 254.211 92.1236L256.372 92.3665C256.235 92.9375 255.975 93.4361 255.592 93.8622C255.213 94.2841 254.727 94.6122 254.135 94.8466C253.542 95.0767 252.865 95.1918 252.102 95.1918ZM266.185 87.777L264.076 88.0071C264.016 87.794 263.912 87.5938 263.763 87.4062C263.618 87.2188 263.422 87.0675 263.175 86.9524C262.927 86.8374 262.625 86.7798 262.267 86.7798C261.785 86.7798 261.381 86.8842 261.052 87.093C260.729 87.3018 260.569 87.5724 260.573 87.9048C260.569 88.1903 260.673 88.4226 260.886 88.6016C261.104 88.7805 261.461 88.9276 261.96 89.0426L263.635 89.4006C264.564 89.6009 265.254 89.9183 265.706 90.353C266.162 90.7876 266.392 91.3565 266.396 92.0597C266.392 92.6776 266.211 93.223 265.853 93.696C265.499 94.1648 265.007 94.5312 264.376 94.7955C263.746 95.0597 263.021 95.1918 262.203 95.1918C261.001 95.1918 260.034 94.9403 259.301 94.4375C258.568 93.9304 258.131 93.2251 257.991 92.3217L260.247 92.1044C260.349 92.5476 260.567 92.8821 260.899 93.108C261.231 93.3338 261.664 93.4467 262.197 93.4467C262.746 93.4467 263.187 93.3338 263.52 93.108C263.856 92.8821 264.025 92.603 264.025 92.2706C264.025 91.9893 263.916 91.7571 263.699 91.5739C263.486 91.3906 263.153 91.25 262.702 91.152L261.027 90.8004C260.085 90.6044 259.388 90.2741 258.937 89.8097C258.485 89.3409 258.261 88.7486 258.265 88.0327C258.261 87.4276 258.425 86.9034 258.758 86.4602C259.094 86.0128 259.561 85.6676 260.157 85.4247C260.758 85.1776 261.451 85.054 262.235 85.054C263.385 85.054 264.291 85.299 264.952 85.7891C265.616 86.2791 266.028 86.9418 266.185 87.777ZM274.562 90.8707V85.1818H276.876V95H274.632V93.255H274.53C274.308 93.8047 273.944 94.2543 273.437 94.6037C272.934 94.9531 272.314 95.1278 271.577 95.1278C270.933 95.1278 270.365 94.9851 269.87 94.6996C269.38 94.4098 268.997 93.9901 268.72 93.4403C268.443 92.8864 268.304 92.2173 268.304 91.4332V85.1818H270.618V91.0753C270.618 91.6974 270.789 92.1918 271.129 92.5582C271.47 92.9247 271.918 93.108 272.472 93.108C272.813 93.108 273.143 93.0249 273.463 92.8587C273.782 92.6925 274.044 92.4453 274.249 92.1172C274.458 91.7848 274.562 91.3693 274.562 90.8707ZM281.569 81.9091V95H279.255V81.9091H281.569ZM288.851 85.1818V86.9716H283.207V85.1818H288.851ZM284.601 82.8295H286.915V92.0469C286.915 92.358 286.961 92.5966 287.055 92.7628C287.153 92.9247 287.281 93.0355 287.439 93.0952C287.596 93.1548 287.771 93.1847 287.963 93.1847C288.108 93.1847 288.24 93.174 288.359 93.1527C288.483 93.1314 288.577 93.1122 288.64 93.0952L289.03 94.9041C288.907 94.9467 288.73 94.9936 288.5 95.0447C288.274 95.0959 287.997 95.1257 287.669 95.1342C287.089 95.1513 286.567 95.0639 286.103 94.8722C285.638 94.6761 285.27 94.3736 284.997 93.9645C284.729 93.5554 284.596 93.044 284.601 92.4304V82.8295ZM298.406 87.777L296.297 88.0071C296.237 87.794 296.132 87.5938 295.983 87.4062C295.838 87.2188 295.642 87.0675 295.395 86.9524C295.148 86.8374 294.846 86.7798 294.488 86.7798C294.006 86.7798 293.601 86.8842 293.273 87.093C292.949 87.3018 292.789 87.5724 292.794 87.9048C292.789 88.1903 292.894 88.4226 293.107 88.6016C293.324 88.7805 293.682 88.9276 294.181 89.0426L295.855 89.4006C296.784 89.6009 297.475 89.9183 297.926 90.353C298.382 90.7876 298.613 91.3565 298.617 92.0597C298.613 92.6776 298.431 93.223 298.074 93.696C297.72 94.1648 297.228 94.5312 296.597 94.7955C295.966 95.0597 295.242 95.1918 294.424 95.1918C293.222 95.1918 292.255 94.9403 291.522 94.4375C290.789 93.9304 290.352 93.2251 290.211 92.3217L292.468 92.1044C292.57 92.5476 292.787 92.8821 293.12 93.108C293.452 93.3338 293.885 93.4467 294.417 93.4467C294.967 93.4467 295.408 93.3338 295.74 93.108C296.077 92.8821 296.245 92.603 296.245 92.2706C296.245 91.9893 296.137 91.7571 295.919 91.5739C295.706 91.3906 295.374 91.25 294.922 91.152L293.248 90.8004C292.306 90.6044 291.609 90.2741 291.157 89.8097C290.706 89.3409 290.482 88.7486 290.486 88.0327C290.482 87.4276 290.646 86.9034 290.978 86.4602C291.315 86.0128 291.782 85.6676 292.378 85.4247C292.979 85.1776 293.672 85.054 294.456 85.054C295.606 85.054 296.512 85.299 297.172 85.7891C297.837 86.2791 298.248 86.9418 298.406 87.777Z" fill="#12141D"/>
<path opacity="0.4" d="M85.233 95V84.8182H88.7926C89.5019 84.8182 90.0869 84.9408 90.5476 85.1861C91.0083 85.428 91.3513 85.7545 91.5767 86.1655C91.8021 86.5732 91.9148 87.0256 91.9148 87.5227C91.9148 87.9602 91.8369 88.3215 91.6811 88.6065C91.5286 88.8916 91.3265 89.117 91.0746 89.2827C90.826 89.4484 90.5559 89.571 90.2642 89.6506V89.75C90.5758 89.7699 90.889 89.8793 91.2038 90.0781C91.5187 90.277 91.7822 90.562 91.9943 90.9332C92.2064 91.3045 92.3125 91.7585 92.3125 92.2955C92.3125 92.8059 92.1965 93.2649 91.9645 93.6726C91.7325 94.0803 91.3662 94.4034 90.8658 94.642C90.3653 94.8807 89.714 95 88.9119 95H85.233ZM86.4659 93.9062H88.9119C89.7173 93.9062 90.2891 93.7505 90.6271 93.4389C90.9685 93.1241 91.1392 92.7429 91.1392 92.2955C91.1392 91.9508 91.0514 91.6326 90.8757 91.3409C90.7 91.0459 90.4498 90.8106 90.125 90.6349C89.8002 90.456 89.4157 90.3665 88.9716 90.3665H86.4659V93.9062ZM86.4659 89.2926H88.7528C89.1241 89.2926 89.4588 89.2197 89.7571 89.0739C90.0587 88.928 90.2973 88.7225 90.473 88.4574C90.652 88.1922 90.7415 87.8807 90.7415 87.5227C90.7415 87.0753 90.5857 86.6958 90.2741 86.3842C89.9626 86.0694 89.4688 85.9119 88.7926 85.9119H86.4659V89.2926ZM95.2966 84.8182V95H94.1233V84.8182H95.2966ZM100.492 95.1591C99.8025 95.1591 99.1976 94.995 98.6772 94.6669C98.1602 94.3388 97.7558 93.8797 97.4642 93.2898C97.1758 92.6998 97.0316 92.0104 97.0316 91.2216C97.0316 90.4261 97.1758 89.7318 97.4642 89.1385C97.7558 88.5452 98.1602 88.0845 98.6772 87.7564C99.1976 87.4283 99.8025 87.2642 100.492 87.2642C101.181 87.2642 101.784 87.4283 102.302 87.7564C102.822 88.0845 103.226 88.5452 103.515 89.1385C103.806 89.7318 103.952 90.4261 103.952 91.2216C103.952 92.0104 103.806 92.6998 103.515 93.2898C103.226 93.8797 102.822 94.3388 102.302 94.6669C101.784 94.995 101.181 95.1591 100.492 95.1591ZM100.492 94.1051C101.016 94.1051 101.446 93.9709 101.784 93.7024C102.123 93.4339 102.373 93.081 102.535 92.6435C102.698 92.206 102.779 91.732 102.779 91.2216C102.779 90.7112 102.698 90.2356 102.535 89.7947C102.373 89.3539 102.123 88.9976 101.784 88.7259C101.446 88.4541 101.016 88.3182 100.492 88.3182C99.9682 88.3182 99.5373 88.4541 99.1993 88.7259C98.8612 88.9976 98.611 89.3539 98.4485 89.7947C98.2861 90.2356 98.2049 90.7112 98.2049 91.2216C98.2049 91.732 98.2861 92.206 98.4485 92.6435C98.611 93.081 98.8612 93.4339 99.1993 93.7024C99.5373 93.9709 99.9682 94.1051 100.492 94.1051ZM108.77 98.0227C108.203 98.0227 107.716 97.9498 107.308 97.804C106.9 97.6615 106.56 97.4725 106.289 97.2372C106.02 97.0052 105.806 96.7566 105.647 96.4915L106.582 95.8352C106.688 95.9744 106.822 96.1335 106.985 96.3125C107.147 96.4948 107.369 96.6522 107.651 96.7848C107.936 96.9207 108.309 96.9886 108.77 96.9886C109.386 96.9886 109.895 96.8395 110.296 96.5412C110.697 96.2429 110.897 95.7756 110.897 95.1392V93.5881H110.798C110.712 93.7273 110.589 93.8996 110.43 94.1051C110.274 94.3073 110.049 94.4879 109.754 94.647C109.462 94.8028 109.068 94.8807 108.571 94.8807C107.954 94.8807 107.401 94.7348 106.91 94.4432C106.423 94.1515 106.037 93.7273 105.752 93.1705C105.47 92.6136 105.329 91.9375 105.329 91.142C105.329 90.3598 105.467 89.6787 105.742 89.0987C106.017 88.5154 106.4 88.0646 106.89 87.7464C107.381 87.425 107.948 87.2642 108.591 87.2642C109.088 87.2642 109.482 87.3471 109.774 87.5128C110.069 87.6752 110.294 87.8608 110.45 88.0696C110.609 88.2751 110.732 88.4441 110.818 88.5767H110.937V87.3636H112.071V95.2188C112.071 95.875 111.921 96.4086 111.623 96.8196C111.328 97.2339 110.93 97.5372 110.43 97.7294C109.933 97.925 109.379 98.0227 108.77 98.0227ZM108.73 93.8267C109.2 93.8267 109.598 93.719 109.923 93.5036C110.248 93.2881 110.495 92.9782 110.664 92.5739C110.833 92.1695 110.917 91.6856 110.917 91.1222C110.917 90.572 110.834 90.0864 110.669 89.6655C110.503 89.2446 110.258 88.9148 109.933 88.6761C109.608 88.4375 109.207 88.3182 108.73 88.3182C108.233 88.3182 107.818 88.4441 107.487 88.696C107.159 88.9479 106.912 89.286 106.746 89.7102C106.584 90.1345 106.502 90.6051 106.502 91.1222C106.502 91.6525 106.585 92.1214 106.751 92.5291C106.92 92.9335 107.169 93.2517 107.497 93.4837C107.828 93.7124 108.239 93.8267 108.73 93.8267ZM126.794 89.9091C126.794 90.983 126.6 91.911 126.212 92.6932C125.824 93.4754 125.292 94.0786 124.616 94.5028C123.94 94.9271 123.168 95.1392 122.3 95.1392C121.431 95.1392 120.659 94.9271 119.983 94.5028C119.307 94.0786 118.775 93.4754 118.387 92.6932C117.999 91.911 117.805 90.983 117.805 89.9091C117.805 88.8352 117.999 87.9072 118.387 87.125C118.775 86.3428 119.307 85.7396 119.983 85.3153C120.659 84.8911 121.431 84.679 122.3 84.679C123.168 84.679 123.94 84.8911 124.616 85.3153C125.292 85.7396 125.824 86.3428 126.212 87.125C126.6 87.9072 126.794 88.8352 126.794 89.9091ZM125.601 89.9091C125.601 89.0275 125.453 88.2834 125.158 87.6768C124.867 87.0703 124.47 86.6113 123.97 86.2997C123.473 85.9882 122.916 85.8324 122.3 85.8324C121.683 85.8324 121.125 85.9882 120.624 86.2997C120.127 86.6113 119.731 87.0703 119.436 87.6768C119.144 88.2834 118.998 89.0275 118.998 89.9091C118.998 90.7907 119.144 91.5348 119.436 92.1413C119.731 92.7479 120.127 93.2069 120.624 93.5185C121.125 93.83 121.683 93.9858 122.3 93.9858C122.916 93.9858 123.473 93.83 123.97 93.5185C124.47 93.2069 124.867 92.7479 125.158 92.1413C125.453 91.5348 125.601 90.7907 125.601 89.9091ZM133.464 91.8778V87.3636H134.638V95H133.464V93.7074H133.385C133.206 94.0952 132.927 94.425 132.55 94.6967C132.172 94.9652 131.695 95.0994 131.118 95.0994C130.641 95.0994 130.216 94.995 129.845 94.7862C129.474 94.5741 129.182 94.2559 128.97 93.8317C128.758 93.4041 128.652 92.8655 128.652 92.2159V87.3636H129.825V92.1364C129.825 92.6932 129.981 93.1373 130.293 93.4688C130.607 93.8002 131.008 93.9659 131.496 93.9659C131.787 93.9659 132.084 93.8913 132.386 93.7422C132.691 93.593 132.946 93.3643 133.151 93.0561C133.36 92.7479 133.464 92.3551 133.464 91.8778ZM140.052 87.3636V88.358H136.094V87.3636H140.052ZM137.248 85.5341H138.421V92.8125C138.421 93.1439 138.469 93.3925 138.565 93.5582C138.665 93.7206 138.791 93.83 138.943 93.8864C139.099 93.9394 139.263 93.9659 139.435 93.9659C139.565 93.9659 139.671 93.9593 139.753 93.946C139.836 93.9295 139.903 93.9162 139.952 93.9062L140.191 94.9602C140.111 94.9901 140 95.0199 139.858 95.0497C139.715 95.0829 139.535 95.0994 139.316 95.0994C138.984 95.0994 138.66 95.0282 138.341 94.8857C138.027 94.7431 137.765 94.526 137.556 94.2344C137.35 93.9427 137.248 93.5748 137.248 93.1307V85.5341ZM143.098 84.8182V95H141.925V84.8182H143.098ZM145.191 95V87.3636H146.364V95H145.191ZM145.788 86.0909C145.559 86.0909 145.362 86.013 145.196 85.8572C145.034 85.7015 144.952 85.5142 144.952 85.2955C144.952 85.0767 145.034 84.8894 145.196 84.7337C145.362 84.5779 145.559 84.5 145.788 84.5C146.016 84.5 146.212 84.5779 146.374 84.7337C146.54 84.8894 146.623 85.0767 146.623 85.2955C146.623 85.5142 146.54 85.7015 146.374 85.8572C146.212 86.013 146.016 86.0909 145.788 86.0909ZM149.631 90.4062V95H148.457V87.3636H149.591V88.5568H149.69C149.869 88.169 150.141 87.8575 150.506 87.6222C150.87 87.3835 151.341 87.2642 151.917 87.2642C152.434 87.2642 152.887 87.3703 153.275 87.5824C153.662 87.7912 153.964 88.1094 154.18 88.5369C154.395 88.9612 154.503 89.4981 154.503 90.1477V95H153.329V90.2273C153.329 89.6274 153.174 89.16 152.862 88.8253C152.55 88.4872 152.123 88.3182 151.579 88.3182C151.205 88.3182 150.87 88.3994 150.575 88.5618C150.283 88.7242 150.053 88.9612 149.884 89.2727C149.715 89.5843 149.631 89.9621 149.631 90.4062ZM159.792 95.1591C159.057 95.1591 158.422 94.9967 157.888 94.6719C157.358 94.3438 156.949 93.8864 156.66 93.2997C156.375 92.7098 156.233 92.0237 156.233 91.2415C156.233 90.4593 156.375 89.7699 156.66 89.1733C156.949 88.5734 157.35 88.1061 157.863 87.7713C158.38 87.4332 158.984 87.2642 159.673 87.2642C160.071 87.2642 160.464 87.3305 160.851 87.4631C161.239 87.5956 161.592 87.8111 161.91 88.1094C162.228 88.4044 162.482 88.7955 162.671 89.2827C162.86 89.7699 162.954 90.3698 162.954 91.0824V91.5795H157.068V90.5653H161.761C161.761 90.1345 161.675 89.75 161.503 89.4119C161.334 89.0739 161.092 88.8071 160.777 88.6115C160.465 88.416 160.097 88.3182 159.673 88.3182C159.206 88.3182 158.801 88.4342 158.46 88.6662C158.122 88.8949 157.862 89.1932 157.679 89.5611C157.497 89.929 157.406 90.3234 157.406 90.7443V91.4205C157.406 91.9972 157.505 92.486 157.704 92.8871C157.906 93.2848 158.187 93.5881 158.545 93.7969C158.902 94.0024 159.318 94.1051 159.792 94.1051C160.101 94.1051 160.379 94.062 160.628 93.9759C160.88 93.8864 161.097 93.7538 161.279 93.5781C161.461 93.3991 161.602 93.1771 161.701 92.9119L162.835 93.2301C162.716 93.6146 162.515 93.9527 162.233 94.2443C161.952 94.5327 161.604 94.758 161.189 94.9205C160.775 95.0795 160.309 95.1591 159.792 95.1591ZM85.233 128V117.818H88.7926C89.5019 117.818 90.0869 117.941 90.5476 118.186C91.0083 118.428 91.3513 118.754 91.5767 119.165C91.8021 119.573 91.9148 120.026 91.9148 120.523C91.9148 120.96 91.8369 121.321 91.6811 121.607C91.5286 121.892 91.3265 122.117 91.0746 122.283C90.826 122.448 90.5559 122.571 90.2642 122.651V122.75C90.5758 122.77 90.889 122.879 91.2038 123.078C91.5187 123.277 91.7822 123.562 91.9943 123.933C92.2064 124.304 92.3125 124.759 92.3125 125.295C92.3125 125.806 92.1965 126.265 91.9645 126.673C91.7325 127.08 91.3662 127.403 90.8658 127.642C90.3653 127.881 89.714 128 88.9119 128H85.233ZM86.4659 126.906H88.9119C89.7173 126.906 90.2891 126.75 90.6271 126.439C90.9685 126.124 91.1392 125.743 91.1392 125.295C91.1392 124.951 91.0514 124.633 90.8757 124.341C90.7 124.046 90.4498 123.811 90.125 123.635C89.8002 123.456 89.4157 123.366 88.9716 123.366H86.4659V126.906ZM86.4659 122.293H88.7528C89.1241 122.293 89.4588 122.22 89.7571 122.074C90.0587 121.928 90.2973 121.723 90.473 121.457C90.652 121.192 90.7415 120.881 90.7415 120.523C90.7415 120.075 90.5857 119.696 90.2741 119.384C89.9626 119.069 89.4688 118.912 88.7926 118.912H86.4659V122.293ZM95.2966 117.818V128H94.1233V117.818H95.2966ZM100.492 128.159C99.8025 128.159 99.1976 127.995 98.6772 127.667C98.1602 127.339 97.7558 126.88 97.4642 126.29C97.1758 125.7 97.0316 125.01 97.0316 124.222C97.0316 123.426 97.1758 122.732 97.4642 122.138C97.7558 121.545 98.1602 121.085 98.6772 120.756C99.1976 120.428 99.8025 120.264 100.492 120.264C101.181 120.264 101.784 120.428 102.302 120.756C102.822 121.085 103.226 121.545 103.515 122.138C103.806 122.732 103.952 123.426 103.952 124.222C103.952 125.01 103.806 125.7 103.515 126.29C103.226 126.88 102.822 127.339 102.302 127.667C101.784 127.995 101.181 128.159 100.492 128.159ZM100.492 127.105C101.016 127.105 101.446 126.971 101.784 126.702C102.123 126.434 102.373 126.081 102.535 125.643C102.698 125.206 102.779 124.732 102.779 124.222C102.779 123.711 102.698 123.236 102.535 122.795C102.373 122.354 102.123 121.998 101.784 121.726C101.446 121.454 101.016 121.318 100.492 121.318C99.9682 121.318 99.5373 121.454 99.1993 121.726C98.8612 121.998 98.611 122.354 98.4485 122.795C98.2861 123.236 98.2049 123.711 98.2049 124.222C98.2049 124.732 98.2861 125.206 98.4485 125.643C98.611 126.081 98.8612 126.434 99.1993 126.702C99.5373 126.971 99.9682 127.105 100.492 127.105ZM108.77 131.023C108.203 131.023 107.716 130.95 107.308 130.804C106.9 130.661 106.56 130.473 106.289 130.237C106.02 130.005 105.806 129.757 105.647 129.491L106.582 128.835C106.688 128.974 106.822 129.134 106.985 129.312C107.147 129.495 107.369 129.652 107.651 129.785C107.936 129.921 108.309 129.989 108.77 129.989C109.386 129.989 109.895 129.839 110.296 129.541C110.697 129.243 110.897 128.776 110.897 128.139V126.588H110.798C110.712 126.727 110.589 126.9 110.43 127.105C110.274 127.307 110.049 127.488 109.754 127.647C109.462 127.803 109.068 127.881 108.571 127.881C107.954 127.881 107.401 127.735 106.91 127.443C106.423 127.152 106.037 126.727 105.752 126.17C105.47 125.614 105.329 124.937 105.329 124.142C105.329 123.36 105.467 122.679 105.742 122.099C106.017 121.515 106.4 121.065 106.89 120.746C107.381 120.425 107.948 120.264 108.591 120.264C109.088 120.264 109.482 120.347 109.774 120.513C110.069 120.675 110.294 120.861 110.45 121.07C110.609 121.275 110.732 121.444 110.818 121.577H110.937V120.364H112.071V128.219C112.071 128.875 111.921 129.409 111.623 129.82C111.328 130.234 110.93 130.537 110.43 130.729C109.933 130.925 109.379 131.023 108.77 131.023ZM108.73 126.827C109.2 126.827 109.598 126.719 109.923 126.504C110.248 126.288 110.495 125.978 110.664 125.574C110.833 125.17 110.917 124.686 110.917 124.122C110.917 123.572 110.834 123.086 110.669 122.665C110.503 122.245 110.258 121.915 109.933 121.676C109.608 121.437 109.207 121.318 108.73 121.318C108.233 121.318 107.818 121.444 107.487 121.696C107.159 121.948 106.912 122.286 106.746 122.71C106.584 123.134 106.502 123.605 106.502 124.122C106.502 124.652 106.585 125.121 106.751 125.529C106.92 125.933 107.169 126.252 107.497 126.484C107.828 126.712 108.239 126.827 108.73 126.827ZM119.436 117.818V128H118.203V117.818H119.436ZM122.866 123.406V128H121.693V120.364H122.826V121.557H122.926C123.105 121.169 123.377 120.857 123.741 120.622C124.106 120.384 124.576 120.264 125.153 120.264C125.67 120.264 126.123 120.37 126.51 120.582C126.898 120.791 127.2 121.109 127.415 121.537C127.631 121.961 127.738 122.498 127.738 123.148V128H126.565V123.227C126.565 122.627 126.409 122.16 126.098 121.825C125.786 121.487 125.359 121.318 124.815 121.318C124.441 121.318 124.106 121.399 123.811 121.562C123.519 121.724 123.289 121.961 123.12 122.273C122.951 122.584 122.866 122.962 122.866 123.406ZM133.147 120.364V121.358H129.19V120.364H133.147ZM130.343 118.534H131.517V125.812C131.517 126.144 131.565 126.393 131.661 126.558C131.76 126.721 131.886 126.83 132.039 126.886C132.195 126.939 132.359 126.966 132.531 126.966C132.66 126.966 132.766 126.959 132.849 126.946C132.932 126.929 132.998 126.916 133.048 126.906L133.287 127.96C133.207 127.99 133.096 128.02 132.954 128.05C132.811 128.083 132.63 128.099 132.412 128.099C132.08 128.099 131.755 128.028 131.437 127.886C131.122 127.743 130.86 127.526 130.652 127.234C130.446 126.943 130.343 126.575 130.343 126.131V118.534ZM134.856 128V120.364H135.99V121.517H136.069C136.209 121.139 136.46 120.833 136.825 120.597C137.19 120.362 137.601 120.244 138.058 120.244C138.144 120.244 138.252 120.246 138.381 120.249C138.51 120.253 138.608 120.258 138.675 120.264V121.457C138.635 121.447 138.544 121.433 138.401 121.413C138.262 121.389 138.114 121.378 137.959 121.378C137.587 121.378 137.256 121.456 136.964 121.612C136.676 121.764 136.447 121.976 136.278 122.248C136.112 122.516 136.03 122.823 136.03 123.168V128H134.856ZM142.879 128.159C142.19 128.159 141.585 127.995 141.065 127.667C140.547 127.339 140.143 126.88 139.851 126.29C139.563 125.7 139.419 125.01 139.419 124.222C139.419 123.426 139.563 122.732 139.851 122.138C140.143 121.545 140.547 121.085 141.065 120.756C141.585 120.428 142.19 120.264 142.879 120.264C143.569 120.264 144.172 120.428 144.689 120.756C145.209 121.085 145.614 121.545 145.902 122.138C146.194 122.732 146.339 123.426 146.339 124.222C146.339 125.01 146.194 125.7 145.902 126.29C145.614 126.88 145.209 127.339 144.689 127.667C144.172 127.995 143.569 128.159 142.879 128.159ZM142.879 127.105C143.403 127.105 143.834 126.971 144.172 126.702C144.51 126.434 144.76 126.081 144.922 125.643C145.085 125.206 145.166 124.732 145.166 124.222C145.166 123.711 145.085 123.236 144.922 122.795C144.76 122.354 144.51 121.998 144.172 121.726C143.834 121.454 143.403 121.318 142.879 121.318C142.355 121.318 141.925 121.454 141.587 121.726C141.248 121.998 140.998 122.354 140.836 122.795C140.673 123.236 140.592 123.711 140.592 124.222C140.592 124.732 140.673 125.206 140.836 125.643C140.998 126.081 141.248 126.434 141.587 126.702C141.925 126.971 142.355 127.105 142.879 127.105ZM85.233 161V150.818H88.7926C89.5019 150.818 90.0869 150.941 90.5476 151.186C91.0083 151.428 91.3513 151.754 91.5767 152.165C91.8021 152.573 91.9148 153.026 91.9148 153.523C91.9148 153.96 91.8369 154.321 91.6811 154.607C91.5286 154.892 91.3265 155.117 91.0746 155.283C90.826 155.448 90.5559 155.571 90.2642 155.651V155.75C90.5758 155.77 90.889 155.879 91.2038 156.078C91.5187 156.277 91.7822 156.562 91.9943 156.933C92.2064 157.304 92.3125 157.759 92.3125 158.295C92.3125 158.806 92.1965 159.265 91.9645 159.673C91.7325 160.08 91.3662 160.403 90.8658 160.642C90.3653 160.881 89.714 161 88.9119 161H85.233ZM86.4659 159.906H88.9119C89.7173 159.906 90.2891 159.75 90.6271 159.439C90.9685 159.124 91.1392 158.743 91.1392 158.295C91.1392 157.951 91.0514 157.633 90.8757 157.341C90.7 157.046 90.4498 156.811 90.125 156.635C89.8002 156.456 89.4157 156.366 88.9716 156.366H86.4659V159.906ZM86.4659 155.293H88.7528C89.1241 155.293 89.4588 155.22 89.7571 155.074C90.0587 154.928 90.2973 154.723 90.473 154.457C90.652 154.192 90.7415 153.881 90.7415 153.523C90.7415 153.075 90.5857 152.696 90.2741 152.384C89.9626 152.069 89.4688 151.912 88.7926 151.912H86.4659V155.293ZM95.2966 150.818V161H94.1233V150.818H95.2966ZM100.492 161.159C99.8025 161.159 99.1976 160.995 98.6772 160.667C98.1602 160.339 97.7558 159.88 97.4642 159.29C97.1758 158.7 97.0316 158.01 97.0316 157.222C97.0316 156.426 97.1758 155.732 97.4642 155.138C97.7558 154.545 98.1602 154.085 98.6772 153.756C99.1976 153.428 99.8025 153.264 100.492 153.264C101.181 153.264 101.784 153.428 102.302 153.756C102.822 154.085 103.226 154.545 103.515 155.138C103.806 155.732 103.952 156.426 103.952 157.222C103.952 158.01 103.806 158.7 103.515 159.29C103.226 159.88 102.822 160.339 102.302 160.667C101.784 160.995 101.181 161.159 100.492 161.159ZM100.492 160.105C101.016 160.105 101.446 159.971 101.784 159.702C102.123 159.434 102.373 159.081 102.535 158.643C102.698 158.206 102.779 157.732 102.779 157.222C102.779 156.711 102.698 156.236 102.535 155.795C102.373 155.354 102.123 154.998 101.784 154.726C101.446 154.454 101.016 154.318 100.492 154.318C99.9682 154.318 99.5373 154.454 99.1993 154.726C98.8612 154.998 98.611 155.354 98.4485 155.795C98.2861 156.236 98.2049 156.711 98.2049 157.222C98.2049 157.732 98.2861 158.206 98.4485 158.643C98.611 159.081 98.8612 159.434 99.1993 159.702C99.5373 159.971 99.9682 160.105 100.492 160.105ZM108.77 164.023C108.203 164.023 107.716 163.95 107.308 163.804C106.9 163.661 106.56 163.473 106.289 163.237C106.02 163.005 105.806 162.757 105.647 162.491L106.582 161.835C106.688 161.974 106.822 162.134 106.985 162.312C107.147 162.495 107.369 162.652 107.651 162.785C107.936 162.921 108.309 162.989 108.77 162.989C109.386 162.989 109.895 162.839 110.296 162.541C110.697 162.243 110.897 161.776 110.897 161.139V159.588H110.798C110.712 159.727 110.589 159.9 110.43 160.105C110.274 160.307 110.049 160.488 109.754 160.647C109.462 160.803 109.068 160.881 108.571 160.881C107.954 160.881 107.401 160.735 106.91 160.443C106.423 160.152 106.037 159.727 105.752 159.17C105.47 158.614 105.329 157.937 105.329 157.142C105.329 156.36 105.467 155.679 105.742 155.099C106.017 154.515 106.4 154.065 106.89 153.746C107.381 153.425 107.948 153.264 108.591 153.264C109.088 153.264 109.482 153.347 109.774 153.513C110.069 153.675 110.294 153.861 110.45 154.07C110.609 154.275 110.732 154.444 110.818 154.577H110.937V153.364H112.071V161.219C112.071 161.875 111.921 162.409 111.623 162.82C111.328 163.234 110.93 163.537 110.43 163.729C109.933 163.925 109.379 164.023 108.77 164.023ZM108.73 159.827C109.2 159.827 109.598 159.719 109.923 159.504C110.248 159.288 110.495 158.978 110.664 158.574C110.833 158.17 110.917 157.686 110.917 157.122C110.917 156.572 110.834 156.086 110.669 155.665C110.503 155.245 110.258 154.915 109.933 154.676C109.608 154.437 109.207 154.318 108.73 154.318C108.233 154.318 107.818 154.444 107.487 154.696C107.159 154.948 106.912 155.286 106.746 155.71C106.584 156.134 106.502 156.605 106.502 157.122C106.502 157.652 106.585 158.121 106.751 158.529C106.92 158.933 107.169 159.252 107.497 159.484C107.828 159.712 108.239 159.827 108.73 159.827ZM126.396 154H125.163C125.09 153.645 124.963 153.334 124.78 153.065C124.601 152.797 124.383 152.571 124.124 152.389C123.869 152.204 123.586 152.064 123.274 151.972C122.962 151.879 122.638 151.832 122.3 151.832C121.683 151.832 121.125 151.988 120.624 152.3C120.127 152.611 119.731 153.07 119.436 153.677C119.144 154.283 118.998 155.027 118.998 155.909C118.998 156.791 119.144 157.535 119.436 158.141C119.731 158.748 120.127 159.207 120.624 159.518C121.125 159.83 121.683 159.986 122.3 159.986C122.638 159.986 122.962 159.939 123.274 159.847C123.586 159.754 123.869 159.616 124.124 159.434C124.383 159.248 124.601 159.021 124.78 158.753C124.963 158.481 125.09 158.17 125.163 157.818H126.396C126.303 158.339 126.134 158.804 125.889 159.215C125.644 159.626 125.339 159.976 124.974 160.264C124.61 160.549 124.2 160.766 123.746 160.915C123.296 161.065 122.813 161.139 122.3 161.139C121.431 161.139 120.659 160.927 119.983 160.503C119.307 160.079 118.775 159.475 118.387 158.693C117.999 157.911 117.805 156.983 117.805 155.909C117.805 154.835 117.999 153.907 118.387 153.125C118.775 152.343 119.307 151.74 119.983 151.315C120.659 150.891 121.431 150.679 122.3 150.679C122.813 150.679 123.296 150.754 123.746 150.903C124.2 151.052 124.61 151.271 124.974 151.559C125.339 151.844 125.644 152.192 125.889 152.603C126.134 153.011 126.303 153.476 126.396 154ZM131.276 161.159C130.586 161.159 129.981 160.995 129.461 160.667C128.944 160.339 128.54 159.88 128.248 159.29C127.96 158.7 127.815 158.01 127.815 157.222C127.815 156.426 127.96 155.732 128.248 155.138C128.54 154.545 128.944 154.085 129.461 153.756C129.981 153.428 130.586 153.264 131.276 153.264C131.965 153.264 132.568 153.428 133.085 153.756C133.606 154.085 134.01 154.545 134.298 155.138C134.59 155.732 134.736 156.426 134.736 157.222C134.736 158.01 134.59 158.7 134.298 159.29C134.01 159.88 133.606 160.339 133.085 160.667C132.568 160.995 131.965 161.159 131.276 161.159ZM131.276 160.105C131.799 160.105 132.23 159.971 132.568 159.702C132.906 159.434 133.157 159.081 133.319 158.643C133.481 158.206 133.563 157.732 133.563 157.222C133.563 156.711 133.481 156.236 133.319 155.795C133.157 155.354 132.906 154.998 132.568 154.726C132.23 154.454 131.799 154.318 131.276 154.318C130.752 154.318 130.321 154.454 129.983 154.726C129.645 154.998 129.395 155.354 129.232 155.795C129.07 156.236 128.989 156.711 128.989 157.222C128.989 157.732 129.07 158.206 129.232 158.643C129.395 159.081 129.645 159.434 129.983 159.702C130.321 159.971 130.752 160.105 131.276 160.105ZM137.644 156.406V161H136.471V153.364H137.604V154.557H137.704C137.883 154.169 138.155 153.857 138.519 153.622C138.884 153.384 139.354 153.264 139.931 153.264C140.448 153.264 140.901 153.37 141.288 153.582C141.676 153.791 141.978 154.109 142.193 154.537C142.409 154.961 142.516 155.498 142.516 156.148V161H141.343V156.227C141.343 155.627 141.187 155.16 140.876 154.825C140.564 154.487 140.137 154.318 139.593 154.318C139.219 154.318 138.884 154.399 138.589 154.562C138.297 154.724 138.067 154.961 137.898 155.273C137.729 155.584 137.644 155.962 137.644 156.406ZM147.707 161.159C146.991 161.159 146.374 160.99 145.857 160.652C145.34 160.314 144.942 159.848 144.664 159.255C144.386 158.662 144.246 157.984 144.246 157.222C144.246 156.446 144.389 155.762 144.674 155.168C144.962 154.572 145.363 154.106 145.877 153.771C146.394 153.433 146.997 153.264 147.687 153.264C148.224 153.264 148.708 153.364 149.138 153.562C149.569 153.761 149.922 154.04 150.197 154.398C150.473 154.756 150.643 155.173 150.709 155.651H149.536C149.447 155.303 149.248 154.994 148.94 154.726C148.635 154.454 148.224 154.318 147.707 154.318C147.249 154.318 146.848 154.437 146.504 154.676C146.162 154.911 145.895 155.245 145.703 155.675C145.514 156.103 145.42 156.605 145.42 157.182C145.42 157.772 145.513 158.286 145.698 158.723C145.887 159.161 146.152 159.5 146.494 159.742C146.838 159.984 147.243 160.105 147.707 160.105C148.012 160.105 148.288 160.052 148.537 159.946C148.785 159.84 148.996 159.688 149.168 159.489C149.341 159.29 149.463 159.051 149.536 158.773H150.709C150.643 159.223 150.479 159.629 150.217 159.991C149.959 160.349 149.616 160.634 149.188 160.846C148.764 161.055 148.27 161.159 147.707 161.159ZM153.542 150.818V161H152.369V150.818H153.542ZM160.447 157.878V153.364H161.621V161H160.447V159.707H160.368C160.189 160.095 159.911 160.425 159.533 160.697C159.155 160.965 158.678 161.099 158.101 161.099C157.624 161.099 157.199 160.995 156.828 160.786C156.457 160.574 156.165 160.256 155.953 159.832C155.741 159.404 155.635 158.866 155.635 158.216V153.364H156.808V158.136C156.808 158.693 156.964 159.137 157.276 159.469C157.59 159.8 157.991 159.966 158.479 159.966C158.77 159.966 159.067 159.891 159.369 159.742C159.674 159.593 159.929 159.364 160.134 159.056C160.343 158.748 160.447 158.355 160.447 157.878ZM169.123 155.074L168.069 155.372C168.003 155.196 167.905 155.026 167.776 154.86C167.65 154.691 167.477 154.552 167.258 154.442C167.04 154.333 166.76 154.278 166.418 154.278C165.951 154.278 165.562 154.386 165.25 154.602C164.942 154.814 164.788 155.084 164.788 155.412C164.788 155.704 164.894 155.934 165.106 156.103C165.318 156.272 165.649 156.413 166.1 156.526L167.234 156.804C167.916 156.97 168.425 157.223 168.76 157.565C169.095 157.903 169.262 158.339 169.262 158.872C169.262 159.31 169.136 159.701 168.884 160.045C168.636 160.39 168.288 160.662 167.84 160.861C167.393 161.06 166.872 161.159 166.279 161.159C165.5 161.159 164.856 160.99 164.345 160.652C163.835 160.314 163.512 159.82 163.376 159.17L164.489 158.892C164.595 159.303 164.796 159.611 165.091 159.817C165.389 160.022 165.779 160.125 166.259 160.125C166.806 160.125 167.24 160.009 167.562 159.777C167.887 159.542 168.049 159.26 168.049 158.932C168.049 158.667 167.956 158.445 167.771 158.266C167.585 158.083 167.3 157.947 166.915 157.858L165.643 157.56C164.943 157.394 164.43 157.137 164.102 156.789C163.777 156.438 163.614 155.999 163.614 155.472C163.614 155.041 163.735 154.66 163.977 154.328C164.222 153.997 164.556 153.737 164.977 153.548C165.401 153.359 165.881 153.264 166.418 153.264C167.174 153.264 167.767 153.43 168.198 153.761C168.632 154.093 168.941 154.53 169.123 155.074ZM170.972 161V153.364H172.145V161H170.972ZM171.569 152.091C171.34 152.091 171.143 152.013 170.977 151.857C170.815 151.701 170.734 151.514 170.734 151.295C170.734 151.077 170.815 150.889 170.977 150.734C171.143 150.578 171.34 150.5 171.569 150.5C171.797 150.5 171.993 150.578 172.155 150.734C172.321 150.889 172.404 151.077 172.404 151.295C172.404 151.514 172.321 151.701 172.155 151.857C171.993 152.013 171.797 152.091 171.569 152.091ZM177.341 161.159C176.651 161.159 176.046 160.995 175.526 160.667C175.009 160.339 174.605 159.88 174.313 159.29C174.025 158.7 173.88 158.01 173.88 157.222C173.88 156.426 174.025 155.732 174.313 155.138C174.605 154.545 175.009 154.085 175.526 153.756C176.046 153.428 176.651 153.264 177.341 153.264C178.03 153.264 178.633 153.428 179.15 153.756C179.671 154.085 180.075 154.545 180.363 155.138C180.655 155.732 180.801 156.426 180.801 157.222C180.801 158.01 180.655 158.7 180.363 159.29C180.075 159.88 179.671 160.339 179.15 160.667C178.633 160.995 178.03 161.159 177.341 161.159ZM177.341 160.105C177.864 160.105 178.295 159.971 178.633 159.702C178.971 159.434 179.222 159.081 179.384 158.643C179.546 158.206 179.628 157.732 179.628 157.222C179.628 156.711 179.546 156.236 179.384 155.795C179.222 155.354 178.971 154.998 178.633 154.726C178.295 154.454 177.864 154.318 177.341 154.318C176.817 154.318 176.386 154.454 176.048 154.726C175.71 154.998 175.46 155.354 175.297 155.795C175.135 156.236 175.054 156.711 175.054 157.222C175.054 157.732 175.135 158.206 175.297 158.643C175.46 159.081 175.71 159.434 176.048 159.702C176.386 159.971 176.817 160.105 177.341 160.105ZM183.709 156.406V161H182.536V153.364H183.669V154.557H183.769C183.948 154.169 184.22 153.857 184.584 153.622C184.949 153.384 185.419 153.264 185.996 153.264C186.513 153.264 186.966 153.37 187.353 153.582C187.741 153.791 188.043 154.109 188.258 154.537C188.474 154.961 188.581 155.498 188.581 156.148V161H187.408V156.227C187.408 155.627 187.252 155.16 186.941 154.825C186.629 154.487 186.202 154.318 185.658 154.318C185.284 154.318 184.949 154.399 184.654 154.562C184.362 154.724 184.132 154.961 183.963 155.273C183.794 155.584 183.709 155.962 183.709 156.406ZM85.6506 194H84.358L88.0966 183.818H89.3693L93.108 194H91.8153L88.7727 185.429H88.6932L85.6506 194ZM86.1278 190.023H91.3381V191.116H86.1278V190.023ZM95.8708 183.818V194H94.6379V183.818H95.8708ZM101.429 194H98.287V183.818H101.568C102.556 183.818 103.401 184.022 104.104 184.43C104.806 184.834 105.345 185.416 105.719 186.175C106.094 186.93 106.281 187.835 106.281 188.889C106.281 189.95 106.092 190.863 105.715 191.629C105.337 192.391 104.786 192.978 104.064 193.388C103.341 193.796 102.463 194 101.429 194ZM99.5199 192.906H101.349C102.191 192.906 102.889 192.744 103.443 192.419C103.996 192.094 104.409 191.632 104.68 191.032C104.952 190.432 105.088 189.718 105.088 188.889C105.088 188.067 104.954 187.36 104.685 186.766C104.417 186.17 104.016 185.712 103.482 185.394C102.949 185.073 102.284 184.912 101.489 184.912H99.5199V192.906ZM108.233 194H106.94L110.679 183.818H111.951L115.69 194H114.397L111.355 185.429H111.275L108.233 194ZM108.71 190.023H113.92V191.116H108.71V190.023ZM85.233 227V216.818H88.6733C89.4721 216.818 90.125 216.962 90.6321 217.251C91.1425 217.536 91.5204 217.922 91.7656 218.409C92.0109 218.896 92.1335 219.44 92.1335 220.04C92.1335 220.64 92.0109 221.185 91.7656 221.675C91.5237 222.166 91.1491 222.557 90.642 222.849C90.1349 223.137 89.4853 223.281 88.6932 223.281H86.2273V222.188H88.6534C89.2003 222.188 89.6394 222.093 89.9709 221.904C90.3023 221.715 90.5426 221.46 90.6918 221.138C90.8442 220.814 90.9205 220.447 90.9205 220.04C90.9205 219.632 90.8442 219.268 90.6918 218.946C90.5426 218.625 90.3007 218.373 89.9659 218.19C89.6312 218.005 89.187 217.912 88.6335 217.912H86.4659V227H85.233ZM93.4422 227H92.1496L95.8882 216.818H97.161L100.9 227H99.607L96.5644 218.429H96.4848L93.4422 227ZM93.9195 223.023H99.1297V224.116H93.9195V223.023ZM107.998 219.364C107.938 218.86 107.696 218.469 107.272 218.19C106.848 217.912 106.327 217.773 105.711 217.773C105.26 217.773 104.866 217.846 104.528 217.991C104.193 218.137 103.931 218.338 103.742 218.593C103.556 218.848 103.464 219.138 103.464 219.463C103.464 219.735 103.528 219.969 103.658 220.164C103.79 220.356 103.959 220.517 104.165 220.646C104.37 220.772 104.586 220.877 104.811 220.96C105.036 221.039 105.243 221.104 105.432 221.153L106.466 221.432C106.732 221.501 107.027 221.598 107.351 221.72C107.68 221.843 107.993 222.01 108.291 222.222C108.593 222.431 108.841 222.7 109.037 223.028C109.232 223.356 109.33 223.759 109.33 224.236C109.33 224.786 109.186 225.283 108.898 225.727C108.613 226.171 108.195 226.524 107.645 226.786C107.098 227.048 106.433 227.179 105.651 227.179C104.922 227.179 104.291 227.061 103.757 226.826C103.227 226.591 102.809 226.263 102.504 225.842C102.203 225.421 102.032 224.932 101.992 224.375H103.265C103.298 224.759 103.427 225.078 103.653 225.33C103.881 225.578 104.17 225.764 104.518 225.886C104.869 226.006 105.247 226.065 105.651 226.065C106.122 226.065 106.544 225.989 106.919 225.837C107.293 225.681 107.59 225.465 107.809 225.19C108.028 224.912 108.137 224.587 108.137 224.216C108.137 223.878 108.042 223.603 107.854 223.391C107.665 223.179 107.416 223.006 107.108 222.874C106.8 222.741 106.466 222.625 106.109 222.526L104.856 222.168C104.06 221.939 103.43 221.612 102.966 221.188C102.502 220.764 102.27 220.209 102.27 219.523C102.27 218.953 102.425 218.455 102.733 218.031C103.044 217.604 103.462 217.272 103.986 217.037C104.513 216.798 105.101 216.679 105.751 216.679C106.407 216.679 106.99 216.797 107.501 217.032C108.011 217.264 108.415 217.582 108.714 217.987C109.015 218.391 109.174 218.85 109.191 219.364H107.998ZM93.4261 253H92.1932C92.1203 252.645 91.9927 252.334 91.8104 252.065C91.6314 251.797 91.4126 251.571 91.1541 251.389C90.8989 251.204 90.6155 251.064 90.304 250.972C89.9924 250.879 89.6676 250.832 89.3295 250.832C88.7131 250.832 88.1546 250.988 87.6541 251.3C87.157 251.611 86.7609 252.07 86.4659 252.677C86.1742 253.283 86.0284 254.027 86.0284 254.909C86.0284 255.791 86.1742 256.535 86.4659 257.141C86.7609 257.748 87.157 258.207 87.6541 258.518C88.1546 258.83 88.7131 258.986 89.3295 258.986C89.6676 258.986 89.9924 258.939 90.304 258.847C90.6155 258.754 90.8989 258.616 91.1541 258.434C91.4126 258.248 91.6314 258.021 91.8104 257.753C91.9927 257.481 92.1203 257.17 92.1932 256.818H93.4261C93.3333 257.339 93.1643 257.804 92.919 258.215C92.6738 258.626 92.3688 258.976 92.0043 259.264C91.6397 259.549 91.2304 259.766 90.7763 259.915C90.3255 260.065 89.8433 260.139 89.3295 260.139C88.4612 260.139 87.6889 259.927 87.0128 259.503C86.3366 259.079 85.8047 258.475 85.4169 257.693C85.0291 256.911 84.8352 255.983 84.8352 254.909C84.8352 253.835 85.0291 252.907 85.4169 252.125C85.8047 251.343 86.3366 250.74 87.0128 250.315C87.6889 249.891 88.4612 249.679 89.3295 249.679C89.8433 249.679 90.3255 249.754 90.7763 249.903C91.2304 250.052 91.6397 250.271 92.0043 250.559C92.3688 250.844 92.6738 251.192 92.919 251.603C93.1643 252.011 93.3333 252.476 93.4261 253ZM98.3057 260.159C97.6163 260.159 97.0114 259.995 96.4911 259.667C95.974 259.339 95.5697 258.88 95.278 258.29C94.9896 257.7 94.8455 257.01 94.8455 256.222C94.8455 255.426 94.9896 254.732 95.278 254.138C95.5697 253.545 95.974 253.085 96.4911 252.756C97.0114 252.428 97.6163 252.264 98.3057 252.264C98.9951 252.264 99.5983 252.428 100.115 252.756C100.636 253.085 101.04 253.545 101.328 254.138C101.62 254.732 101.766 255.426 101.766 256.222C101.766 257.01 101.62 257.7 101.328 258.29C101.04 258.88 100.636 259.339 100.115 259.667C99.5983 259.995 98.9951 260.159 98.3057 260.159ZM98.3057 259.105C98.8294 259.105 99.2602 258.971 99.5983 258.702C99.9364 258.434 100.187 258.081 100.349 257.643C100.511 257.206 100.593 256.732 100.593 256.222C100.593 255.711 100.511 255.236 100.349 254.795C100.187 254.354 99.9364 253.998 99.5983 253.726C99.2602 253.454 98.8294 253.318 98.3057 253.318C97.782 253.318 97.3511 253.454 97.0131 253.726C96.675 253.998 96.4248 254.354 96.2624 254.795C96.1 255.236 96.0188 255.711 96.0188 256.222C96.0188 256.732 96.1 257.206 96.2624 257.643C96.4248 258.081 96.675 258.434 97.0131 258.702C97.3511 258.971 97.782 259.105 98.3057 259.105ZM104.674 255.406V260H103.501V252.364H104.634V253.557H104.734C104.913 253.169 105.185 252.857 105.549 252.622C105.914 252.384 106.384 252.264 106.961 252.264C107.478 252.264 107.931 252.37 108.318 252.582C108.706 252.791 109.008 253.109 109.223 253.537C109.439 253.961 109.546 254.498 109.546 255.148V260H108.373V255.227C108.373 254.627 108.217 254.16 107.906 253.825C107.594 253.487 107.167 253.318 106.623 253.318C106.249 253.318 105.914 253.399 105.619 253.562C105.327 253.724 105.097 253.961 104.928 254.273C104.759 254.584 104.674 254.962 104.674 255.406ZM114.955 252.364V253.358H110.998V252.364H114.955ZM112.151 250.534H113.325V257.812C113.325 258.144 113.373 258.393 113.469 258.558C113.568 258.721 113.694 258.83 113.847 258.886C114.003 258.939 114.167 258.966 114.339 258.966C114.468 258.966 114.574 258.959 114.657 258.946C114.74 258.929 114.806 258.916 114.856 258.906L115.095 259.96C115.015 259.99 114.904 260.02 114.762 260.05C114.619 260.083 114.438 260.099 114.22 260.099C113.888 260.099 113.563 260.028 113.245 259.886C112.93 259.743 112.668 259.526 112.46 259.234C112.254 258.943 112.151 258.575 112.151 258.131V250.534ZM119.784 260.159C119.048 260.159 118.413 259.997 117.88 259.672C117.35 259.344 116.94 258.886 116.652 258.3C116.367 257.71 116.224 257.024 116.224 256.241C116.224 255.459 116.367 254.77 116.652 254.173C116.94 253.573 117.341 253.106 117.855 252.771C118.372 252.433 118.975 252.264 119.665 252.264C120.062 252.264 120.455 252.33 120.843 252.463C121.231 252.596 121.584 252.811 121.902 253.109C122.22 253.404 122.474 253.795 122.663 254.283C122.851 254.77 122.946 255.37 122.946 256.082V256.58H117.06V255.565H121.753C121.753 255.134 121.667 254.75 121.494 254.412C121.325 254.074 121.083 253.807 120.768 253.612C120.457 253.416 120.089 253.318 119.665 253.318C119.197 253.318 118.793 253.434 118.452 253.666C118.114 253.895 117.853 254.193 117.671 254.561C117.489 254.929 117.398 255.323 117.398 255.744V256.42C117.398 256.997 117.497 257.486 117.696 257.887C117.898 258.285 118.178 258.588 118.536 258.797C118.894 259.002 119.31 259.105 119.784 259.105C120.092 259.105 120.371 259.062 120.619 258.976C120.871 258.886 121.088 258.754 121.27 258.578C121.453 258.399 121.594 258.177 121.693 257.912L122.827 258.23C122.707 258.615 122.507 258.953 122.225 259.244C121.943 259.533 121.595 259.758 121.181 259.92C120.767 260.08 120.301 260.159 119.784 260.159ZM125.848 255.406V260H124.675V252.364H125.808V253.557H125.908C126.087 253.169 126.358 252.857 126.723 252.622C127.088 252.384 127.558 252.264 128.135 252.264C128.652 252.264 129.104 252.37 129.492 252.582C129.88 252.791 130.182 253.109 130.397 253.537C130.612 253.961 130.72 254.498 130.72 255.148V260H129.547V255.227C129.547 254.627 129.391 254.16 129.08 253.825C128.768 253.487 128.34 253.318 127.797 253.318C127.422 253.318 127.088 253.399 126.793 253.562C126.501 253.724 126.271 253.961 126.102 254.273C125.933 254.584 125.848 254.962 125.848 255.406ZM136.129 252.364V253.358H132.172V252.364H136.129ZM133.325 250.534H134.499V257.812C134.499 258.144 134.547 258.393 134.643 258.558C134.742 258.721 134.868 258.83 135.021 258.886C135.176 258.939 135.34 258.966 135.513 258.966C135.642 258.966 135.748 258.959 135.831 258.946C135.914 258.929 135.98 258.916 136.03 258.906L136.268 259.96C136.189 259.99 136.078 260.02 135.935 260.05C135.793 260.083 135.612 260.099 135.393 260.099C135.062 260.099 134.737 260.028 134.419 259.886C134.104 259.743 133.842 259.526 133.633 259.234C133.428 258.943 133.325 258.575 133.325 258.131V250.534ZM141.879 260V249.818H145.319C146.114 249.818 146.767 249.954 147.278 250.226C147.788 250.494 148.166 250.864 148.411 251.335C148.657 251.805 148.779 252.34 148.779 252.94C148.779 253.54 148.657 254.072 148.411 254.536C148.166 255 147.79 255.365 147.283 255.63C146.776 255.892 146.128 256.023 145.339 256.023H142.555V254.909H145.299C145.843 254.909 146.28 254.83 146.612 254.67C146.946 254.511 147.188 254.286 147.338 253.994C147.49 253.699 147.566 253.348 147.566 252.94C147.566 252.533 147.49 252.176 147.338 251.871C147.185 251.567 146.941 251.331 146.607 251.165C146.272 250.996 145.829 250.912 145.279 250.912H143.112V260H141.879ZM146.671 255.426L149.177 260H147.745L145.279 255.426H146.671ZM153.738 260.159C153.003 260.159 152.368 259.997 151.834 259.672C151.304 259.344 150.895 258.886 150.606 258.3C150.321 257.71 150.179 257.024 150.179 256.241C150.179 255.459 150.321 254.77 150.606 254.173C150.895 253.573 151.296 253.106 151.809 252.771C152.326 252.433 152.93 252.264 153.619 252.264C154.017 252.264 154.41 252.33 154.797 252.463C155.185 252.596 155.538 252.811 155.856 253.109C156.174 253.404 156.428 253.795 156.617 254.283C156.806 254.77 156.9 255.37 156.9 256.082V256.58H151.014V255.565H155.707C155.707 255.134 155.621 254.75 155.449 254.412C155.28 254.074 155.038 253.807 154.723 253.612C154.411 253.416 154.043 253.318 153.619 253.318C153.152 253.318 152.747 253.434 152.406 253.666C152.068 253.895 151.808 254.193 151.625 254.561C151.443 254.929 151.352 255.323 151.352 255.744V256.42C151.352 256.997 151.451 257.486 151.65 257.887C151.852 258.285 152.133 258.588 152.49 258.797C152.848 259.002 153.264 259.105 153.738 259.105C154.047 259.105 154.325 259.062 154.574 258.976C154.825 258.886 155.043 258.754 155.225 258.578C155.407 258.399 155.548 258.177 155.647 257.912L156.781 258.23C156.662 258.615 156.461 258.953 156.179 259.244C155.898 259.533 155.55 259.758 155.135 259.92C154.721 260.08 154.255 260.159 153.738 260.159ZM160.359 260L158.033 252.364H159.265L160.916 258.21H160.996L162.626 252.364H163.879L165.49 258.19H165.569L167.22 252.364H168.453L166.126 260H164.973L163.302 254.134H163.183L161.513 260H160.359ZM169.948 260V252.364H171.082V253.517H171.161C171.3 253.139 171.552 252.833 171.917 252.597C172.281 252.362 172.692 252.244 173.15 252.244C173.236 252.244 173.344 252.246 173.473 252.249C173.602 252.253 173.7 252.258 173.766 252.264V253.457C173.727 253.447 173.635 253.433 173.493 253.413C173.354 253.389 173.206 253.378 173.05 253.378C172.679 253.378 172.348 253.456 172.056 253.612C171.768 253.764 171.539 253.976 171.37 254.248C171.204 254.516 171.121 254.823 171.121 255.168V260H169.948ZM175.101 260V252.364H176.274V260H175.101ZM175.698 251.091C175.469 251.091 175.272 251.013 175.106 250.857C174.944 250.701 174.862 250.514 174.862 250.295C174.862 250.077 174.944 249.889 175.106 249.734C175.272 249.578 175.469 249.5 175.698 249.5C175.926 249.5 176.122 249.578 176.284 249.734C176.45 249.889 176.533 250.077 176.533 250.295C176.533 250.514 176.45 250.701 176.284 250.857C176.122 251.013 175.926 251.091 175.698 251.091ZM181.688 252.364V253.358H177.731V252.364H181.688ZM178.884 250.534H180.058V257.812C180.058 258.144 180.106 258.393 180.202 258.558C180.301 258.721 180.427 258.83 180.58 258.886C180.735 258.939 180.9 258.966 181.072 258.966C181.201 258.966 181.307 258.959 181.39 258.946C181.473 258.929 181.539 258.916 181.589 258.906L181.828 259.96C181.748 259.99 181.637 260.02 181.494 260.05C181.352 260.083 181.171 260.099 180.953 260.099C180.621 260.099 180.296 260.028 179.978 259.886C179.663 259.743 179.401 259.526 179.193 259.234C178.987 258.943 178.884 258.575 178.884 258.131V250.534ZM186.517 260.159C185.781 260.159 185.146 259.997 184.613 259.672C184.083 259.344 183.673 258.886 183.385 258.3C183.1 257.71 182.957 257.024 182.957 256.241C182.957 255.459 183.1 254.77 183.385 254.173C183.673 253.573 184.074 253.106 184.588 252.771C185.105 252.433 185.708 252.264 186.398 252.264C186.795 252.264 187.188 252.33 187.576 252.463C187.964 252.596 188.317 252.811 188.635 253.109C188.953 253.404 189.207 253.795 189.396 254.283C189.584 254.77 189.679 255.37 189.679 256.082V256.58H183.793V255.565H188.486C188.486 255.134 188.4 254.75 188.227 254.412C188.058 254.074 187.816 253.807 187.501 253.612C187.19 253.416 186.822 253.318 186.398 253.318C185.93 253.318 185.526 253.434 185.185 253.666C184.847 253.895 184.586 254.193 184.404 254.561C184.222 254.929 184.131 255.323 184.131 255.744V256.42C184.131 256.997 184.23 257.486 184.429 257.887C184.631 258.285 184.911 258.588 185.269 258.797C185.627 259.002 186.043 259.105 186.517 259.105C186.825 259.105 187.104 259.062 187.352 258.976C187.604 258.886 187.821 258.754 188.003 258.578C188.186 258.399 188.327 258.177 188.426 257.912L189.56 258.23C189.44 258.615 189.24 258.953 188.958 259.244C188.676 259.533 188.328 259.758 187.914 259.92C187.5 260.08 187.034 260.159 186.517 260.159ZM191.408 260V252.364H192.541V253.517H192.621C192.76 253.139 193.012 252.833 193.376 252.597C193.741 252.362 194.152 252.244 194.609 252.244C194.696 252.244 194.803 252.246 194.933 252.249C195.062 252.253 195.16 252.258 195.226 252.264V253.457C195.186 253.447 195.095 253.433 194.952 253.413C194.813 253.389 194.666 253.378 194.51 253.378C194.139 253.378 193.807 253.456 193.516 253.612C193.227 253.764 192.999 253.976 192.83 254.248C192.664 254.516 192.581 254.823 192.581 255.168V260H191.408Z" fill="#12141D"/>
<rect x="84" y="281" width="90" height="5" rx="2.5" fill="#E4E8EF"/>
<rect x="84" y="304" width="70" height="5" rx="2.5" fill="#E4E8EF"/>
<rect x="84" y="327" width="82" height="5" rx="2.5" fill="#E4E8EF"/>
<rect x="84" y="350" width="57" height="5" rx="2.5" fill="#E4E8EF"/>
<rect x="84" y="373" width="75" height="5" rx="2.5" fill="#E4E8EF"/>
<rect x="84" y="396" width="87" height="5" rx="2.5" fill="#E4E8EF"/>
<rect x="84" y="419" width="64" height="5" rx="2.5" fill="#E4E8EF"/>
<rect x="84" y="442" width="77" height="5" rx="2.5" fill="#E4E8EF"/>
<rect x="84" y="465" width="57" height="5" rx="2.5" fill="#E4E8EF"/>
</g>
</g>
<defs>
<filter id="filter0_d_315_14849" x="0" y="0" width="674" height="570" filterUnits="userSpaceOnUse" color-interpolation-filters="sRGB">
<feFlood flood-opacity="0" result="BackgroundImageFix"/>
<feColorMatrix in="SourceAlpha" type="matrix" values="0 0 0 0 0 0 0 0 0 0 0 0 0 0 0 0 0 0 127 0" result="hardAlpha"/>
<feOffset dy="4"/>
<feGaussianBlur stdDeviation="30"/>
<feComposite in2="hardAlpha" operator="out"/>
<feColorMatrix type="matrix" values="0 0 0 0 0 0 0 0 0 0 0 0 0 0 0 0 0 0 0.08 0"/>
<feBlend mode="normal" in2="BackgroundImageFix" result="effect1_dropShadow_315_14849"/>
<feBlend mode="normal" in="SourceGraphic" in2="effect1_dropShadow_315_14849" result="shape"/>
</filter>
</defs>
</svg>
