<svg width="23" height="23" viewBox="0 0 23 23" fill="none" xmlns="http://www.w3.org/2000/svg">
<path d="M6.35827 15.6933C5.43835 15.3291 4.96094 13.9156 4.96094 12.9449L4.96094 9.73847C4.96094 8.59498 5.74037 7.93528 6.82405 8.36427L16.6054 12.0288C17.5253 12.393 18.0028 13.8065 18.0028 14.7772L18.0028 17.9836C18.0028 19.1271 17.2233 19.7868 16.1396 19.3578L6.35827 15.6933Z" fill="#FFC300"/>
<path d="M6.35828 7.44814C5.43835 7.81053 4.96094 8.77251 4.96094 9.73847L4.96094 12.9449C4.96094 14.2664 5.74501 15.295 6.82405 15.6933L7.75561 16.1514C6.97029 16.0494 6.92207 14.6693 7.75561 14.3191L16.6054 10.6546C17.37 10.3334 18.0028 9.62768 18.0028 8.82234L18.0028 5.15782C18.0028 4.0199 17.2233 3.35672 16.1396 3.78362L6.35828 7.44814Z" fill="#8759F2"/>
<path fill-rule="evenodd" clip-rule="evenodd" d="M4.96094 12.9462L4.96094 10.1965C4.96094 9.05303 6.16744 8.39333 7.28983 8.82232L14.5751 11.6882L8.22139 14.3191C7.50695 14.6089 7.09896 15.604 7.44048 15.9964L7.75561 16.1514C7.61535 16.1338 7.51165 16.0782 7.44048 15.9964L6.82405 15.6933C5.70683 15.2951 4.96141 14.2671 4.96094 12.9462Z" fill="#FF3E80"/>
</svg>
