<svg width="19" height="19" viewBox="0 0 19 19" fill="none" xmlns="http://www.w3.org/2000/svg">
<path d="M15.9508 9.49999C15.9508 13.0622 13.063 15.95 9.50078 15.95C5.93854 15.95 3.05078 13.0622 3.05078 9.49999C3.05078 5.93775 5.93854 3.04999 9.50078 3.04999C13.063 3.04999 15.9508 5.93775 15.9508 9.49999ZM9.51604 6.32711C9.00972 5.98956 8.35873 5.95809 7.82222 6.24523C7.28571 6.53236 6.95078 7.09148 6.95078 7.69999V11.3C6.95078 11.9085 7.28571 12.4676 7.82222 12.7548C8.35872 13.0419 9.00972 13.0104 9.51604 12.6729L12.216 10.8729C12.6751 10.5669 12.9508 10.0517 12.9508 9.49999C12.9508 8.94831 12.6751 8.43313 12.216 8.12711L9.51604 6.32711Z" fill="white" stroke="#F9FAFB" stroke-width="1.5"/>
</svg>
